<svg width="176" height="37" viewBox="0 0 176 37" fill="none" xmlns="http://www.w3.org/2000/svg">
<path d="M105.99 16.8516C108.11 16.8516 109.805 17.3815 111.075 18.4414C112.049 19.2543 112.743 20.2677 113.158 21.4805C113.36 22.0714 112.883 22.6416 112.259 22.6416H109.475C109 22.6414 108.611 22.295 108.397 21.8721C108.23 21.5436 108.002 21.2649 107.715 21.0361C107.225 20.6462 106.61 20.4512 105.87 20.4512C105.29 20.4512 104.85 20.5762 104.55 20.8262C104.25 21.0762 104.1 21.4316 104.1 21.8916C104.1 22.4115 104.375 22.8016 104.925 23.0615C105.475 23.3215 106.34 23.5818 107.52 23.8418C108.8 24.1418 109.85 24.4468 110.67 24.7568C111.49 25.0668 112.2 25.5715 112.8 26.2715C113.4 26.9715 113.7 27.9118 113.7 29.0918C113.7 30.0516 113.44 30.9017 112.92 31.6416C112.4 32.3815 111.65 32.9619 110.67 33.3818C109.69 33.8018 108.529 34.0117 107.189 34.0117C104.93 34.0117 103.12 33.5116 101.76 32.5117C100.693 31.7272 99.9517 30.6772 99.5372 29.3633C99.3523 28.7762 99.8287 28.2217 100.444 28.2217H103.325C103.835 28.2219 104.234 28.622 104.459 29.0791C104.615 29.3957 104.84 29.6597 105.135 29.8711C105.665 30.251 106.35 30.4413 107.189 30.4414C107.77 30.4414 108.21 30.3061 108.51 30.0361C108.81 29.7662 108.96 29.4115 108.96 28.9717C108.96 28.3917 108.685 27.9766 108.135 27.7266C107.585 27.4766 106.69 27.2116 105.45 26.9316C104.21 26.6716 103.19 26.3918 102.39 26.0918C101.59 25.7919 100.9 25.3065 100.32 24.6367C99.7404 23.9668 99.4503 23.0515 99.4502 21.8916C99.4502 20.3916 100.02 19.1761 101.16 18.2461C102.3 17.3163 103.91 16.8516 105.99 16.8516ZM135.27 16.8516C136.55 16.8516 137.65 17.1417 138.57 17.7217C138.762 17.8428 138.944 17.9729 139.115 18.1123C139.557 18.4721 140.609 18.1575 140.609 17.5879C140.609 17.2972 140.846 17.0615 141.137 17.0615H144.71C145.262 17.0616 145.71 17.5093 145.71 18.0615V32.8018C145.71 33.3538 145.262 33.8017 144.71 33.8018H141.137C140.846 33.8018 140.61 33.5659 140.609 33.2754C140.609 32.7058 139.557 32.3903 139.115 32.75C138.944 32.8895 138.763 33.0204 138.57 33.1416C137.65 33.7216 136.55 34.0117 135.27 34.0117C133.89 34.0117 132.654 33.6665 131.564 32.9766C130.475 32.2866 129.614 31.2911 128.984 29.9912C128.355 28.6913 128.04 27.1714 128.04 25.4316C128.04 23.6717 128.354 22.1464 128.984 20.8564C129.614 19.5666 130.475 18.5767 131.564 17.8867C132.654 17.1968 133.89 16.8516 135.27 16.8516ZM167.7 16.8516C169.82 16.8516 171.515 17.3815 172.785 18.4414C173.759 19.2543 174.454 20.2677 174.869 21.4805C175.071 22.0713 174.593 22.6416 173.969 22.6416H171.185C170.71 22.6414 170.321 22.295 170.106 21.8721C169.939 21.5436 169.712 21.2648 169.425 21.0361C168.935 20.6462 168.32 20.4512 167.58 20.4512C167 20.4512 166.56 20.5762 166.26 20.8262C165.96 21.0762 165.81 21.4316 165.81 21.8916C165.81 22.4115 166.085 22.8016 166.635 23.0615C167.185 23.3215 168.05 23.5818 169.23 23.8418C170.51 24.1418 171.56 24.4468 172.38 24.7568C173.2 25.0668 173.91 25.5715 174.51 26.2715C175.11 26.9715 175.41 27.9118 175.41 29.0918C175.41 30.0516 175.15 30.9017 174.63 31.6416C174.11 32.3815 173.36 32.9619 172.38 33.3818C171.4 33.8018 170.239 34.0117 168.899 34.0117C166.64 34.0117 164.83 33.5116 163.47 32.5117C162.403 31.7272 161.662 30.6772 161.247 29.3633C161.062 28.7762 161.539 28.2217 162.154 28.2217H165.035C165.545 28.2219 165.944 28.6219 166.169 29.0791C166.325 29.3957 166.55 29.6597 166.845 29.8711C167.375 30.251 168.06 30.4413 168.899 30.4414C169.479 30.4414 169.92 30.3061 170.22 30.0361C170.52 29.7662 170.67 29.4115 170.67 28.9717C170.67 28.3917 170.395 27.9766 169.845 27.7266C169.295 27.4766 168.4 27.2116 167.16 26.9316C165.92 26.6716 164.9 26.3918 164.1 26.0918C163.3 25.7919 162.61 25.3065 162.03 24.6367C161.45 23.9668 161.16 23.0515 161.16 21.8916C161.16 20.3916 161.73 19.1761 162.87 18.2461C164.01 17.3163 165.62 16.8516 167.7 16.8516ZM4.74223 12.5918C5.22678 12.5919 5.64166 12.939 5.72661 13.416L7.47563 23.2578C7.6654 24.3234 9.17688 24.3695 9.43169 23.3174L11.8448 13.3564C11.9534 12.9079 12.3549 12.5919 12.8165 12.5918H16.8536C17.315 12.592 17.7166 12.9079 17.8252 13.3564L20.2432 23.3398C20.498 24.3906 22.0078 24.3455 22.1993 23.2812L23.9717 13.4141C24.0575 12.9379 24.4722 12.5919 24.9561 12.5918H28.4024C29.0487 12.5918 29.5253 13.1956 29.375 13.8242L24.7833 33.0342C24.6756 33.4841 24.2732 33.8018 23.8106 33.8018H19.0293C18.5667 33.8018 18.1644 33.484 18.0567 33.0342L15.8184 23.665C15.5741 22.6426 14.1194 22.6411 13.8731 23.6631L11.6143 33.0361C11.5059 33.4849 11.1043 33.8016 10.6426 33.8018H5.85942C5.39683 33.8018 4.99448 33.484 4.88677 33.0342L0.294969 13.8242C0.144745 13.1958 0.620574 12.5921 1.26665 12.5918H4.74223ZM36.5 17.0615C37.0523 17.0616 37.5 17.5093 37.5 18.0615V32.8018C37.4998 33.3538 37.0521 33.8017 36.5 33.8018H33.3702C32.818 33.8018 32.3704 33.3539 32.3702 32.8018V18.0615C32.3702 17.5092 32.8179 17.0615 33.3702 17.0615H36.5ZM96.7432 16.9561C97.2892 16.8728 97.7403 17.3296 97.7403 17.8818V21.3711C97.7403 21.9232 97.2924 22.3709 96.7403 22.3711H96.2696C94.9097 22.3711 93.8545 22.6613 93.1045 23.2412C92.3546 23.8212 91.9795 24.8017 91.9795 26.1816V32.8018C91.9793 33.3539 91.5317 33.8018 90.9795 33.8018H87.8497C87.2976 33.8016 86.8499 33.3538 86.8497 32.8018V18.0615C86.8497 17.5093 87.2975 17.0617 87.8497 17.0615H91.2764C91.665 17.0617 91.9795 17.377 91.9795 17.7656C91.9799 18.4719 93.0399 18.8283 93.5889 18.3838C93.8607 18.1638 94.1495 17.9628 94.4551 17.7812C95.1747 17.3538 95.9374 17.079 96.7432 16.9561ZM121.64 12.9512C122.192 12.9512 122.64 13.399 122.64 13.9512V16.0615C122.64 16.6137 123.088 17.0614 123.64 17.0615H125C125.552 17.0616 126 17.5093 126 18.0615V20.3818C126 20.9339 125.552 21.3818 125 21.3818H123.64C123.088 21.3819 122.64 21.8296 122.64 22.3818V27.6211C122.64 28.281 122.775 28.7409 123.045 29.001C123.315 29.261 123.77 29.3916 124.41 29.3916H125.03C125.582 29.3918 126.03 29.8395 126.03 30.3916V32.8018C126.03 33.3537 125.582 33.8015 125.03 33.8018H123.72C121.76 33.8017 120.235 33.3167 119.145 32.3467C118.055 31.3767 117.51 29.7712 117.51 27.5312V22.3818C117.51 21.8296 117.062 21.3818 116.51 21.3818H116.26C115.708 21.3818 115.26 20.9339 115.26 20.3818V18.0615C115.26 17.5093 115.708 17.0616 116.26 17.0615H116.51C117.062 17.0615 117.51 16.6137 117.51 16.0615V13.9512C117.51 13.399 117.958 12.9512 118.51 12.9512H121.64ZM154.34 12.9512C154.892 12.9512 155.34 13.399 155.34 13.9512V16.0615C155.34 16.6137 155.788 17.0615 156.34 17.0615H157.7C158.252 17.0617 158.7 17.5094 158.7 18.0615V20.3818C158.7 20.9338 158.252 21.3817 157.7 21.3818H156.34C155.788 21.3818 155.34 21.8296 155.34 22.3818V27.6211C155.34 28.281 155.475 28.741 155.745 29.001C156.015 29.2609 156.47 29.3915 157.109 29.3916H157.73C158.282 29.3916 158.73 29.8393 158.73 30.3916V32.8018C158.729 33.3539 158.282 33.8018 157.73 33.8018H156.42C154.46 33.8018 152.935 33.3166 151.845 32.3467C150.755 31.3767 150.21 29.7713 150.21 27.5312V22.3818C150.21 21.8296 149.762 21.3819 149.21 21.3818H148.96C148.408 21.3818 147.96 20.9339 147.96 20.3818V18.0615C147.96 17.5092 148.408 17.0615 148.96 17.0615H149.21C149.762 17.0615 150.21 16.6137 150.21 16.0615V13.9512C150.21 13.399 150.658 12.9512 151.21 12.9512H154.34ZM136.92 21.3516C135.82 21.3516 134.935 21.7116 134.265 22.4316C133.595 23.1516 133.26 24.1518 133.26 25.4316C133.26 26.7115 133.595 27.7117 134.265 28.4316C134.935 29.1516 135.82 29.5117 136.92 29.5117C138 29.5117 138.885 29.1414 139.575 28.4014C140.265 27.6614 140.609 26.6714 140.609 25.4316C140.609 24.1717 140.265 23.1763 139.575 22.4463C138.885 21.7163 138 21.3516 136.92 21.3516ZM34.9502 9.65137C35.87 9.65143 36.6101 9.90616 37.17 10.416C37.73 10.926 38.0098 11.5716 38.0098 12.3516C38.0098 13.1115 37.7299 13.7469 37.17 14.2568C36.6101 14.7667 35.87 15.0214 34.9502 15.0215C34.0303 15.0215 33.2895 14.7668 32.7295 14.2568C32.1696 13.7469 31.8897 13.1115 31.8897 12.3516C31.8897 11.5716 32.1695 10.926 32.7295 10.416C33.2895 9.90601 34.0302 9.65137 34.9502 9.65137Z" fill="white"/>
<path fill-rule="evenodd" clip-rule="evenodd" d="M66.5277 29.5922C66.5277 30.6968 65.6323 31.5922 64.5277 31.5922H60.4757C59.3711 31.5922 58.4757 30.6968 58.4757 29.5922V21.8216C58.4757 19.6005 57.0104 17.6456 54.8785 17.0224L49.1432 15.346C47.1705 14.355 46.774 12.3559 47.1705 11.2346C47.9365 9.06861 49.1432 8.70394 51.5402 8.25088C53.5819 7.86498 62.0845 8.46516 64.5606 8.65158C64.9728 8.68262 65.3174 8.96534 65.4349 9.36169L66.689 13.5919L72.9089 13.3311C73.3366 13.3131 73.7511 13.4816 74.0451 13.7928C74.7731 14.5635 74.4767 15.8239 73.477 16.177C71.5728 16.8496 68.7991 17.7979 66.9971 18.2741C66.2356 18.4753 65.4289 18.2942 64.8588 17.7508C64.0409 16.9712 63.3884 16.0901 62.8937 15.2973C62.0457 13.9385 60.6623 12.892 59.0628 12.8072L57.6893 12.7344C56.6259 12.678 56.2228 14.1015 57.1578 14.611L62.5101 17.5278C62.8316 17.703 63.0316 18.0398 63.0316 18.4059V27.3188H65.5277C66.08 27.3188 66.5277 27.7665 66.5277 28.3188V29.5922Z" fill="white"/>
<path d="M48.5996 16.8506C50.2594 16.8506 51.7196 17.1903 52.9795 17.8701C54.2395 18.5501 55.2153 19.5054 55.9053 20.7354C56.5953 21.9653 56.9394 23.3805 56.9395 24.9805C56.9395 25.7889 56.2078 26.3604 55.3994 26.3604H47.2773C46.1355 26.3604 45.1203 27.3743 45.6387 28.3916C45.7757 28.6604 45.9427 28.8883 46.1396 29.0752C46.7197 29.6252 47.4603 29.9004 48.3604 29.9004C49.1201 29.9003 49.7501 29.7109 50.25 29.3311C50.3226 29.2759 50.3916 29.218 50.457 29.1582C51.1257 28.5468 51.8703 27.8604 52.7764 27.8604H54.2627C55.5141 27.8604 56.4717 29.0259 55.8506 30.1123C55.6694 30.4291 55.462 30.7332 55.2295 31.0254C54.4895 31.9553 53.5501 32.6858 52.4102 33.2158C51.2702 33.7458 49.9996 34.0107 48.5996 34.0107C46.9599 34.0107 45.5052 33.6654 44.2354 32.9756C42.9653 32.2856 41.97 31.2902 41.25 29.9902C40.5301 28.6903 40.1699 27.1705 40.1699 25.4307C40.1699 23.6707 40.5253 22.1455 41.2354 20.8555C41.9453 19.5657 42.9399 18.5757 44.2197 17.8857C45.4997 17.1958 46.9597 16.8506 48.5996 16.8506ZM48.5996 20.9004C47.6598 20.9005 46.8797 21.1803 46.2598 21.7402C45.6398 22.3002 45.29 23.1204 45.21 24.2002H51.75C51.7699 23.1005 51.475 22.2755 50.8652 21.7256C50.2552 21.1756 49.4996 20.9004 48.5996 20.9004Z" fill="white"/>
<path d="M75.8398 16.8506C77.4996 16.8506 78.9598 17.1903 80.2197 17.8701C81.4797 18.5501 82.4555 19.5054 83.1455 20.7354C83.8355 21.9653 84.1797 23.3805 84.1797 24.9805C84.1797 25.7889 83.4481 26.3604 82.6396 26.3604H74.5176C73.3757 26.3604 72.3606 27.3743 72.8789 28.3916C73.0159 28.6604 73.1829 28.8883 73.3799 29.0752C73.9599 29.6252 74.7006 29.9004 75.6006 29.9004C76.3603 29.9003 76.9904 29.7109 77.4902 29.3311C77.5628 29.2759 77.6318 29.218 77.6973 29.1582C78.366 28.5468 79.1105 27.8604 80.0166 27.8604H81.5029C82.7543 27.8604 83.712 29.0259 83.0908 30.1123C82.9097 30.4291 82.7022 30.7332 82.4697 31.0254C81.7298 31.9553 80.7903 32.6858 79.6504 33.2158C78.5104 33.7458 77.2399 34.0107 75.8398 34.0107C74.2001 34.0107 72.7454 33.6654 71.4756 32.9756C70.2056 32.2856 69.2102 31.2902 68.4902 29.9902C67.7703 28.6903 67.4102 27.1705 67.4102 25.4307C67.4102 23.6707 67.7656 22.1455 68.4756 20.8555C69.1855 19.5657 70.1801 18.5757 71.46 17.8857C72.7399 17.1958 74.2 16.8506 75.8398 16.8506ZM75.8398 20.9004C74.9 20.9005 74.1199 21.1803 73.5 21.7402C72.8801 22.3002 72.5303 23.1204 72.4502 24.2002H78.9902C79.0102 23.1005 78.7153 22.2755 78.1055 21.7256C77.4955 21.1756 76.7398 20.9004 75.8398 20.9004Z" fill="white"/>
<path d="M66.4542 3.91074C70.4636 3.17147 72.2522 5.51022 72.6899 7.35949C72.8076 7.85677 72.7776 8.38012 72.6327 8.87014C71.7794 11.7542 68.9871 11.3795 68.0642 10.8023C66.1008 9.57438 66.5 8.89388 66.5 8.00035L64.148 6.8373C63.7819 6.65627 63.6499 6.20018 63.8628 5.85163C64.45 4.89021 65.3463 4.11501 66.4542 3.91074Z" fill="white"/>
</svg>
