<svg width="105" height="105" viewBox="0 0 105 105" fill="none" xmlns="http://www.w3.org/2000/svg">
<rect width="105" height="105" rx="52.5" fill="#5B604E"/>
<path fill-rule="evenodd" clip-rule="evenodd" d="M58.08 65.0055C58.08 66.6013 56.7863 67.895 55.1905 67.895H49.3364C47.7406 67.895 46.4469 66.6013 46.4469 65.0055V57.5239C46.4469 52.0954 42.8658 47.3177 37.6553 45.7947L32.9638 44.4234C30.1138 42.9916 29.5409 40.1034 30.1138 38.4835C31.2205 35.3541 32.9638 34.8273 36.4269 34.1727C39.3766 33.6152 51.6608 34.4823 55.238 34.7516C55.8336 34.7965 56.3314 35.2049 56.5012 35.7776L58.313 41.8891L67.2992 41.5123C67.9171 41.4864 68.516 41.7297 68.9407 42.1793C69.9926 43.2929 69.5643 45.1138 68.1199 45.624C65.3689 46.5958 61.3616 47.9657 58.7581 48.6537C57.6579 48.9444 56.4926 48.6828 55.6689 47.8976C54.4873 46.7714 53.5445 45.4984 52.8297 44.353C51.6046 42.3898 49.606 40.8779 47.2951 40.7554L40.8863 40.4157C40.4185 40.3909 40.2411 41.0172 40.6525 41.2414L52.2756 47.5755C52.74 47.8286 53.029 48.3152 53.029 48.8441V61.7209H56.6353C57.4332 61.7209 58.08 62.3678 58.08 63.1657V65.0055Z" fill="#D0F068"/>
<path fill-rule="evenodd" clip-rule="evenodd" d="M42.003 60.3372C43.1709 60.3372 44.2284 59.5114 44.2284 58.3434C44.2284 56.0318 43.73 53.9875 42.7331 52.2105C41.7362 50.4334 40.3276 49.0537 38.5072 48.0713C36.6868 47.0889 34.5775 46.5977 32.1792 46.5977C29.8098 46.5977 27.7005 47.0961 25.8512 48.093C24.0019 49.0898 22.5644 50.5201 21.5387 52.3839C20.5129 54.2476 20 56.4508 20 58.9936C20 61.5074 20.5201 63.7034 21.5603 65.5816C22.6005 67.4598 24.0381 68.8973 25.8729 69.8942C27.7077 70.8911 29.8098 71.3895 32.1792 71.3895C34.2019 71.3895 36.0367 71.0066 37.6837 70.2409C39.3307 69.4752 40.6888 68.4205 41.7579 67.0769C42.0938 66.6548 42.3925 66.2149 42.6543 65.7571C43.5517 64.1875 42.1683 62.5043 40.3603 62.5043H38.2133C36.9123 62.5043 35.842 63.483 34.8805 64.3622L34.8625 64.3786C34.7678 64.4651 34.668 64.5483 34.563 64.6281C33.8407 65.1771 32.9305 65.4516 31.8325 65.4516C30.5322 65.4516 29.4631 65.0543 28.6251 64.2597C28.3403 63.9896 28.0989 63.6603 27.9009 63.2717C27.1518 61.8018 28.6188 60.3372 30.2685 60.3372H42.003ZM35.4515 53.6408C36.3328 54.4354 36.759 55.6273 36.7301 57.2165H27.2815C27.3971 55.6562 27.9027 54.4715 28.7985 53.6624C29.6942 52.8534 30.8211 52.4489 32.1792 52.4489C33.4794 52.4489 34.5702 52.8462 35.4515 53.6408Z" fill="#D0F068"/>
<path fill-rule="evenodd" clip-rule="evenodd" d="M81.3578 60.3372C82.5258 60.3372 83.5832 59.5114 83.5832 58.3434C83.5832 56.0318 83.0848 53.9875 82.0879 52.2105C81.0911 50.4334 79.6824 49.0537 77.8621 48.0713C76.0417 47.0889 73.9324 46.5977 71.5341 46.5977C69.1647 46.5977 67.0554 47.0961 65.2061 48.093C63.3568 49.0898 61.9193 50.5201 60.8935 52.3839C59.8677 54.2476 59.3549 56.4508 59.3549 58.9936C59.3549 61.5074 59.875 63.7034 60.9152 65.5816C61.9554 67.4598 63.3929 68.8973 65.2278 69.8942C67.0626 70.8911 69.1647 71.3895 71.5341 71.3895C73.5567 71.3895 75.3915 71.0066 77.0385 70.2409C78.6856 69.4752 80.0436 68.4205 81.1127 67.0769C81.4486 66.6548 81.7474 66.2149 82.0091 65.7571C82.9065 64.1875 81.5232 62.5043 79.7152 62.5043H77.5681C76.2672 62.5043 75.1968 63.483 74.2353 64.3622L74.2173 64.3786C74.1227 64.4651 74.0229 64.5483 73.9179 64.6281C73.1955 65.1771 72.2853 65.4516 71.1873 65.4516C69.887 65.4516 68.8179 65.0543 67.98 64.2597C67.6952 63.9896 67.4538 63.6603 67.2558 63.2717C66.5067 61.8018 67.9736 60.3372 69.6234 60.3372H81.3578ZM74.8064 53.6408C75.6877 54.4354 76.1139 55.6273 76.085 57.2165H66.6363C66.7519 55.6562 67.2576 54.4715 68.1533 53.6624C69.0491 52.8534 70.176 52.4489 71.534 52.4489C72.8343 52.4489 73.9251 52.8462 74.8064 53.6408Z" fill="#D0F068"/>
<path d="M57.9739 27.9017C63.7665 26.8336 66.3505 30.2125 66.9829 32.8842C67.1529 33.6027 67.1096 34.3588 66.9002 35.0667C65.6675 39.2334 61.6333 38.6921 60.3 37.8582C57.4633 36.0842 58.0401 35.101 58.0401 33.8101L54.642 32.1298C54.1131 31.8683 53.9225 31.2093 54.23 30.7058C55.0783 29.3168 56.3733 28.1968 57.9739 27.9017Z" fill="#D0F068"/>
</svg>
