<svg width="18" height="12" viewBox="0 0 18 12" fill="none" xmlns="http://www.w3.org/2000/svg">
<g clip-path="url(#clip0_5008_19053)">
<path d="M17.9745 3.29663H0.228027V8.50966H17.9745V3.29663Z" fill="white"/>
<path d="M16.3623 0.069521H1.84311C0.952606 0.069521 0.230713 0.776375 0.230713 1.64832V3.29663H17.9772L17.9772 1.65081C17.9779 1.23122 17.8079 0.828631 17.5049 0.531939C17.2019 0.235248 16.7908 0.0688608 16.3623 0.069521Z" fill="#8CBAE2"/>
<path d="M0.228121 10.158C0.228121 11.0299 0.950015 11.7368 1.84052 11.7368H16.3597C17.2502 11.7368 17.9721 11.0299 17.9721 10.158V8.50967H0.225586L0.228121 10.158Z" fill="#8CBAE2"/>
<path d="M10.6885 6.40212C10.6916 6.32495 10.7124 6.24945 10.7493 6.18119L10.8533 6.00494C10.8862 5.94093 10.8862 5.86539 10.8533 5.80138L10.7468 5.62017C10.7102 5.55179 10.6894 5.47636 10.6859 5.39924V5.19071C10.6818 5.11914 10.6432 5.05374 10.582 5.01446L10.402 4.91517C10.3355 4.87402 10.2792 4.81891 10.2372 4.75381L10.1333 4.57756C10.0931 4.51759 10.0263 4.47982 9.95325 4.47578H9.73776C9.659 4.47237 9.58196 4.45203 9.51213 4.41621L9.32706 4.31195C9.26169 4.27964 9.18454 4.27964 9.11917 4.31195L8.9417 4.41373C8.87196 4.44978 8.79487 4.47013 8.71607 4.4733H8.50818C8.43509 4.47734 8.36829 4.51511 8.32818 4.57508L8.2217 4.7563C8.17955 4.82129 8.12329 4.87638 8.05691 4.91765L7.87184 5.02191C7.8106 5.06118 7.77203 5.12659 7.7679 5.19816V5.40172C7.76475 5.47889 7.74396 5.55439 7.70706 5.62265L7.60311 5.7989C7.57012 5.86291 7.57012 5.93845 7.60311 6.00246L7.70959 6.18367C7.74618 6.25206 7.76695 6.32748 7.77044 6.4046V6.61313C7.77513 6.68516 7.8147 6.75066 7.87691 6.78938L8.05691 6.88867C8.12345 6.92975 8.17975 6.98488 8.2217 7.05003L8.32565 7.22628C8.36576 7.28625 8.43255 7.32402 8.50565 7.32806H8.72114C8.7999 7.33147 8.87694 7.35181 8.94677 7.38763L9.13184 7.49189C9.19721 7.5242 9.27436 7.5242 9.33973 7.49189L9.5172 7.39012C9.58694 7.35406 9.66403 7.33371 9.74283 7.33054H9.95072C10.0238 7.3265 10.0906 7.28873 10.1307 7.22876L10.2372 7.04754C10.2793 6.98255 10.3356 6.92746 10.402 6.88619L10.5871 6.78193C10.6483 6.74266 10.6869 6.67725 10.691 6.60568L10.6885 6.40212Z" fill="#F6BB42"/>
</g>
<defs>
<clipPath id="clip0_5008_19053">
<rect width="18" height="11.9155" fill="white"/>
</clipPath>
</defs>
</svg>
