<svg width="18" height="12" viewBox="0 0 18 12" fill="none" xmlns="http://www.w3.org/2000/svg">
<path d="M1.61239 0.00248239C0.721894 0.00248239 0 0.709336 0 1.58129V10.0884C0 10.9604 0.721894 11.6673 1.61239 11.6673H5.92225C5.92225 7.77817 5.92225 3.88908 5.92225 0L1.61239 0.00248239Z" fill="#57A863"/>
<path d="M5.91724 0.00247192C5.91724 3.89156 5.91724 7.78064 5.91724 11.6697H11.842C11.842 7.78064 11.842 3.89156 11.842 0.00247192H5.91724Z" fill="white"/>
<path d="M16.1315 0.00247192H11.8419C11.8419 3.89156 11.8419 7.78064 11.8419 11.6697H16.1315C17.022 11.6697 17.7439 10.9629 17.7439 10.0909V1.58127C17.7439 0.709326 17.022 0.00247192 16.1315 0.00247192Z" fill="#ED5565"/>
</svg>
