<svg width="18" height="12" viewBox="0 0 18 12" fill="none" xmlns="http://www.w3.org/2000/svg">
<path d="M16.2735 0.0198364H1.49071C0.742976 0.110129 0.147565 0.675899 0.032959 1.40501V10.2721C0.158169 11.0769 0.864661 11.6717 1.69606 11.6722H16.0682C16.9979 11.6722 17.7516 10.9342 17.7516 10.0239V1.65573C17.7515 0.823197 17.1174 0.121396 16.2735 0.0198364Z" fill="#4658A9"/>
<path d="M6.33555 0.00994873H1.67076C0.747993 0.0194746 0.00507567 0.754665 0.00512696 1.65826V5.95776H6.34315L6.33555 0.00994873Z" fill="#4658A9"/>
<path d="M2.67724 4.3293V5.95775H3.66597V4.29206L5.3671 5.95775H6.33555V5.21303L4.5609 3.47535H6.33555V2.48239H4.5609L6.33555 0.744718V0H5.36456L3.66597 1.6632V0H2.67724V1.62845L1.11555 0.0992958C0.719222 0.239918 0.39095 0.520618 0.195268 0.886215L1.82034 2.47743H0.00512695V3.47039H1.82034L0.00512695 5.24778V5.9503H1.01921L2.67724 4.3293Z" fill="white"/>
<path d="M2.9307 3.64914V5.96025H3.41239V3.6119L5.80056 5.95777H6.32789V5.64747L3.84845 3.21968H6.32789V2.74058H3.84845L6.32789 0.312801V0.00994873H5.80056L3.40479 2.35581V0.00994873H2.9231V2.31858L0.811268 0.248259C0.640494 0.349705 0.489427 0.479975 0.36507 0.63303L2.51746 2.74058H0V3.22465H2.51746L0 5.68967V5.96025H0.565352L2.9307 3.64914Z" fill="#EC5463"/>
<path d="M10.5743 3.20725C10.4931 3.26435 10.445 3.23208 10.4703 3.13526L10.559 2.78028C10.5793 2.6742 10.5441 2.56521 10.4652 2.48984L10.2117 2.26394C10.1357 2.1994 10.1559 2.14479 10.2548 2.14231H10.625C10.7309 2.13392 10.8216 2.06464 10.8557 1.96606L10.9723 1.57632C11.0002 1.48199 11.0509 1.47951 11.0838 1.57632L11.2233 1.95861C11.2658 2.05939 11.3654 2.12576 11.4768 2.12741H11.8545C11.9534 2.12741 11.9737 2.18203 11.8976 2.24657L11.6112 2.49481C11.5333 2.56965 11.5007 2.67864 11.525 2.78276L11.6162 3.09555C11.6441 3.18988 11.5985 3.22463 11.5123 3.17498L11.2055 2.9888C11.1126 2.93445 10.9967 2.93445 10.9038 2.9888L10.5743 3.20725Z" fill="white"/>
<path d="M13.6167 4.20023C13.5356 4.25733 13.4874 4.22506 13.5128 4.12824L13.6015 3.77326C13.6218 3.66718 13.5866 3.55819 13.5077 3.48282L13.2542 3.25692C13.1781 3.19238 13.1984 3.13777 13.2973 3.13529H13.6674C13.7734 3.1269 13.8641 3.05762 13.8981 2.95904L14.0148 2.5693C14.0426 2.47497 14.0934 2.47249 14.1263 2.5693L14.2657 2.95159C14.3083 3.05237 14.4079 3.11874 14.5193 3.12039H14.897C14.9959 3.12039 15.0162 3.17501 14.9401 3.23955L14.6536 3.48779C14.5758 3.56263 14.5432 3.67162 14.5674 3.77575L14.6587 4.08853C14.6866 4.18286 14.641 4.21761 14.5548 4.16796L14.248 3.98178C14.1551 3.92743 14.0392 3.92743 13.9463 3.98178L13.6167 4.20023Z" fill="white"/>
<path d="M9.05326 5.93791C8.97213 5.995 8.92396 5.96273 8.94931 5.86592L9.03804 5.51093C9.05834 5.40485 9.02314 5.29586 8.94424 5.22049L8.69072 4.9946C8.61466 4.93005 8.63495 4.87544 8.73382 4.87296H9.10396C9.2099 4.86457 9.30059 4.79529 9.33466 4.69671L9.45128 4.30697C9.47917 4.21264 9.52988 4.21016 9.56283 4.30697L9.70227 4.68926C9.74478 4.79005 9.84444 4.85641 9.95579 4.85806H10.3335C10.4324 4.85806 10.4527 4.91268 10.3766 4.97722L10.0902 5.22546C10.0124 5.3003 9.97973 5.40929 10.004 5.51342L10.0952 5.8262C10.1231 5.92053 10.0775 5.95528 9.99128 5.90563L9.68452 5.71946C9.59162 5.6651 9.47574 5.6651 9.38283 5.71946L9.05326 5.93791Z" fill="white"/>
<path d="M2.83191 9.90227C2.72796 9.97426 2.66712 9.93454 2.69754 9.81042L2.80909 9.35366C2.8346 9.21743 2.78894 9.07772 2.6874 8.9813L2.34515 8.69086C2.24881 8.60894 2.27416 8.53943 2.40092 8.53447L2.88008 8.52206C3.01705 8.51235 3.13483 8.42341 3.17923 8.29616L3.32881 7.79968C3.3643 7.67804 3.43022 7.67556 3.47332 7.79968L3.65332 8.29616C3.70572 8.42163 3.82695 8.50656 3.96515 8.51461H4.45191C4.57867 8.51461 4.60655 8.58412 4.51022 8.66852L4.14008 8.98627C4.03885 9.08268 3.99653 9.22394 4.02853 9.35862L4.14768 9.76077C4.18317 9.88241 4.12233 9.92709 4.01332 9.86007L3.61782 9.61183C3.4981 9.54294 3.34966 9.54294 3.22993 9.61183L2.83191 9.90227Z" fill="white"/>
<path d="M12.7318 7.18651C12.6735 7.22623 12.6405 7.20389 12.6557 7.13687L12.7191 6.88863C12.7327 6.81308 12.707 6.73587 12.6506 6.68259L12.4605 6.52123C12.4073 6.47655 12.4199 6.43683 12.4909 6.43435H12.7444C12.8203 6.42825 12.8851 6.37844 12.9092 6.30775L12.9929 6.02972C13.0132 5.96269 13.0487 5.96021 13.074 6.02972L13.1754 6.30278C13.2044 6.37229 13.2713 6.41952 13.3478 6.42442H13.6191C13.6901 6.42442 13.7053 6.46414 13.6521 6.50882L13.4467 6.68507C13.3991 6.74191 13.3838 6.81842 13.4061 6.88863L13.4721 7.11204C13.4923 7.17907 13.4594 7.20389 13.3985 7.16914L13.178 7.03509C13.1114 6.99688 13.029 6.99688 12.9625 7.03509L12.7318 7.18651Z" fill="white"/>
</svg>
