<svg width="18" height="12" viewBox="0 0 18 12" fill="none" xmlns="http://www.w3.org/2000/svg">
<path d="M16.134 1.99908e-06H1.61484C0.724335 1.99908e-06 0.00244141 0.721895 0.00244141 1.6124V5.83099H17.7489V1.60986C17.7482 1.18223 17.5777 0.772375 17.2749 0.470468C16.972 0.168561 16.5616 -0.000670909 16.134 1.99908e-06Z" fill="#F6BB42"/>
<path d="M17.7465 5.82593H0V8.86818H17.7465V5.82593Z" fill="#4758A9"/>
<path d="M7.99013e-06 10.298C-0.00134145 10.727 0.168288 11.1388 0.471365 11.4423C0.774443 11.7459 1.18598 11.9162 1.61494 11.9155H16.1341C17.0246 11.9155 17.7465 11.1936 17.7465 10.3031V8.87323H1.15035e-08L7.99013e-06 10.298Z" fill="#ED5565"/>
</svg>
