<svg width="18" height="12" viewBox="0 0 18 12" fill="none" xmlns="http://www.w3.org/2000/svg">
<path d="M1.61239 0.00248239C0.721894 0.00248239 0 0.709336 0 1.58129V10.0885C0 10.9604 0.721894 11.6673 1.61239 11.6673H5.92225C5.92225 7.77817 5.92225 3.88908 5.92225 0L1.61239 0.00248239Z" fill="#4758A9"/>
<path d="M5.91724 0.00248146C5.91724 3.89157 5.91724 7.78065 5.91724 11.6697H11.837C11.837 7.78065 11.837 3.89157 11.837 0.00248146H5.91724Z" fill="white"/>
<path d="M16.1317 0.00248146H11.8345C11.8345 3.89157 11.8345 7.78065 11.8345 11.6697H16.1317C17.0222 11.6697 17.744 10.9629 17.744 10.0909V1.58377C17.7447 1.16461 17.5751 0.7624 17.2727 0.465779C16.9702 0.169159 16.5597 0.00248094 16.1317 0.00248146Z" fill="#ED5565"/>
</svg>
