<svg width="18" height="12" viewBox="0 0 18 12" fill="none" xmlns="http://www.w3.org/2000/svg">
<g clip-path="url(#clip0_1306_4426)">
<path d="M16.1976 0.240845H1.67587C0.78537 0.240845 0.0634766 0.947699 0.0634766 1.81965V10.3293C0.0634766 11.2012 0.78537 11.9081 1.67587 11.9081H16.1976C17.0881 11.9081 17.81 11.2012 17.81 10.3293V1.81965C17.81 0.947699 17.0881 0.240845 16.1976 0.240845Z" fill="#ED5565"/>
<path d="M11.472 5.08153H9.95087V3.59209C9.95087 3.31789 9.72386 3.09561 9.44383 3.09561H8.42974C8.14971 3.09561 7.9227 3.31789 7.9227 3.59209V5.08153H6.40157C6.12154 5.08153 5.89453 5.30381 5.89453 5.57801V6.57096C5.89453 6.84516 6.12154 7.06744 6.40157 7.06744H7.9227V8.55688C7.9227 8.83108 8.14971 9.05336 8.42974 9.05336H9.44383C9.72386 9.05336 9.95087 8.83108 9.95087 8.55688V7.06744H11.472C11.752 7.06744 11.979 6.84516 11.979 6.57096V5.57801C11.979 5.30381 11.752 5.08153 11.472 5.08153Z" fill="white"/>
</g>
<defs>
<clipPath id="clip0_1306_4426">
<rect width="18" height="11.9155" fill="white" transform="translate(0 0.0422668)"/>
</clipPath>
</defs>
</svg>
