<svg width="18" height="12" viewBox="0 0 18 12" fill="none" xmlns="http://www.w3.org/2000/svg">
<g clip-path="url(#clip0_5008_19096)">
<path d="M1.71127 0.104259C0.820771 0.104259 0.098877 0.811113 0.098877 1.68306V10.1902C0.098877 11.0622 0.820771 11.769 1.71127 11.769H7.22536V0.101776L1.71127 0.104259Z" fill="#57A863"/>
<path d="M17.8453 10.1902V1.68305C17.8453 0.811102 17.1234 0.104248 16.2329 0.104248H7.22534V11.7715L16.2253 11.7715C16.6547 11.7735 17.0672 11.6077 17.3713 11.3108C17.6754 11.014 17.846 10.6107 17.8453 10.1902Z" fill="#ED5565"/>
<path d="M7.22538 8.77525C8.82576 8.77525 10.1231 7.50491 10.1231 5.93787C10.1231 4.37083 8.82576 3.10049 7.22538 3.10049C5.625 3.10049 4.32764 4.37083 4.32764 5.93787C4.32764 7.50491 5.625 8.77525 7.22538 8.77525Z" fill="#FFCE54"/>
<path d="M8.72609 4.50803H5.72187V6.33507C5.70993 7.08647 6.26436 7.732 7.02243 7.84933C7.45173 7.90501 7.88474 7.77704 8.21088 7.49808C8.53703 7.21912 8.72474 6.81619 8.72609 6.39216V4.51051V4.50803Z" fill="#ED5565"/>
<path d="M8.08484 5.13855V6.37975C8.08484 6.84451 7.70006 7.22128 7.2254 7.22128C6.75075 7.22128 6.36597 6.84451 6.36597 6.37975V5.13855H8.08484Z" fill="white"/>
<path d="M7.22545 5.91057C7.36546 5.91057 7.47897 5.79943 7.47897 5.66233C7.47897 5.52523 7.36546 5.41409 7.22545 5.41409C7.08543 5.41409 6.97192 5.52523 6.97192 5.66233C6.97192 5.79943 7.08543 5.91057 7.22545 5.91057Z" fill="#4758A9"/>
<path d="M7.22545 6.95568C7.36546 6.95568 7.47897 6.84454 7.47897 6.70744C7.47897 6.57034 7.36546 6.4592 7.22545 6.4592C7.08543 6.4592 6.97192 6.57034 6.97192 6.70744C6.97192 6.84454 7.08543 6.95568 7.22545 6.95568Z" fill="#4758A9"/>
<path d="M7.22545 6.43438C7.36546 6.43438 7.47897 6.32324 7.47897 6.18614C7.47897 6.04904 7.36546 5.9379 7.22545 5.9379C7.08543 5.9379 6.97192 6.04904 6.97192 6.18614C6.97192 6.32324 7.08543 6.43438 7.22545 6.43438Z" fill="#4758A9"/>
<path d="M6.69297 6.43187C6.83299 6.43187 6.9465 6.32073 6.9465 6.18363C6.9465 6.04653 6.83299 5.93539 6.69297 5.93539C6.55296 5.93539 6.43945 6.04653 6.43945 6.18363C6.43945 6.32073 6.55296 6.43187 6.69297 6.43187Z" fill="#4758A9"/>
<path d="M7.75767 6.43438C7.89769 6.43438 8.01119 6.32324 8.01119 6.18614C8.01119 6.04904 7.89769 5.9379 7.75767 5.9379C7.61766 5.9379 7.50415 6.04904 7.50415 6.18614C7.50415 6.32324 7.61766 6.43438 7.75767 6.43438Z" fill="#4758A9"/>
</g>
<defs>
<clipPath id="clip0_5008_19096">
<rect width="18" height="11.9155" fill="white"/>
</clipPath>
</defs>
</svg>
