<svg width="18" height="12" viewBox="0 0 18 12" fill="none" xmlns="http://www.w3.org/2000/svg">
<path d="M0 1.64831V3.88246H17.7465V1.64831C17.7465 0.737974 16.9928 0 16.0631 0H1.68338C0.753675 0 0 0.737974 0 1.64831Z" fill="white"/>
<path d="M0 7.7798H17.7465V3.88989H0V7.7798Z" fill="#4758A9"/>
<path d="M0 10.0164C0 10.9268 0.753675 11.6648 1.68338 11.6648H16.0631C16.9928 11.6648 17.7465 10.9268 17.7465 10.0164V7.78229H0V10.0164Z" fill="#ED5565"/>
<path d="M8.40172 1.19897V3.72853C8.40172 5.71445 6.12003 6.51875 6.03383 6.5535C5.98002 6.57174 5.92345 6.58097 5.86651 6.58081C5.80957 6.58097 5.753 6.57174 5.69919 6.5535C5.60285 6.52123 3.35158 5.72686 3.3313 3.73598V1.19897H8.40172ZM4.34538 1.69545V3.72853C4.34538 4.7761 5.44059 5.35947 5.86651 5.54813C6.29243 5.35947 7.38764 4.77114 7.38764 3.72853V1.69545H4.34538Z" fill="#ED5565"/>
<path d="M3.83826 1.19897V3.72853C3.856 5.39422 5.86643 6.08433 5.86643 6.08433C5.86643 6.08433 7.89459 5.39422 7.89459 3.72853V1.19897H3.83826Z" fill="#4758A9"/>
<path d="M3.99292 4.47577C4.467 5.60277 5.86391 6.08436 5.86391 6.08436C5.86391 6.08436 7.26841 5.60277 7.73743 4.48073L5.86391 2.64624L3.99292 4.47577Z" fill="white"/>
</svg>
