<svg width="18" height="12" viewBox="0 0 18 12" fill="none" xmlns="http://www.w3.org/2000/svg">
<g clip-path="url(#clip0_1306_24964)">
<path d="M1.77429 11.8609H16.4202C17.0039 11.8152 17.5214 11.4758 17.7867 10.9647H0.405273C0.671064 11.4765 1.18969 11.816 1.77429 11.8609Z" fill="#ED5565"/>
<path d="M0.230469 10.0661V10.3987C0.252688 10.5952 0.311097 10.7862 0.402863 10.9622H17.7817C17.8735 10.7862 17.9319 10.5952 17.9541 10.3987V10.0661H0.230469Z" fill="white"/>
<path d="M17.9567 9.16998H0.230469V10.0661H17.9567V9.16998Z" fill="#ED5565"/>
<path d="M17.9567 8.27386H0.230469V9.17001H17.9567V8.27386Z" fill="white"/>
<path d="M17.9567 7.37769H0.230469V8.27383H17.9567V7.37769Z" fill="#ED5565"/>
<path d="M17.9567 6.48157H0.230469V7.37771H17.9567V6.48157Z" fill="white"/>
<path d="M17.9567 5.58539H0.230469V6.48153H17.9567V5.58539Z" fill="white"/>
<path d="M17.9567 4.68927H0.230469V5.58541H17.9567V4.68927Z" fill="white"/>
<path d="M17.9567 3.79309H0.230469V4.68923H17.9567V3.79309Z" fill="#ED5565"/>
<path d="M17.9567 2.89447H0.230469V3.79061H17.9567V2.89447Z" fill="white"/>
<path d="M17.9567 1.99835H0.230469V2.8945H17.9567V1.99835Z" fill="#ED5565"/>
<path d="M17.9571 1.99836V1.66572C17.9351 1.46838 17.8767 1.27659 17.7847 1.09973H0.405793C0.313734 1.27659 0.255317 1.46838 0.233398 1.66572V1.99836H17.9571Z" fill="white"/>
<path d="M16.4181 0.206055H1.77468C1.19102 0.251743 0.673531 0.591115 0.408203 1.1022H17.7871C17.5213 0.5904 17.0027 0.250909 16.4181 0.206055Z" fill="#ED5565"/>
<path d="M8.64211 6.48155V0.206055H1.77422C0.969598 0.269128 0.323952 0.882576 0.235352 1.66818V6.48155H8.64211Z" fill="#4A89DC"/>
<path d="M1.27202 0.965637L1.20357 1.17416H0.980469L1.16047 1.30076L1.09202 1.50928L1.27202 1.3802L1.45202 1.50928L1.38357 1.30076L1.56357 1.17416H1.34047L1.27202 0.965637Z" fill="white"/>
<path d="M1.27202 2.01819L1.20357 2.22671H0.980469L1.16047 2.35579L1.09202 2.56183L1.27202 2.43523L1.45202 2.56183L1.38357 2.35579L1.56357 2.22671H1.34047L1.27202 2.01819Z" fill="white"/>
<path d="M1.27202 3.07074L1.20357 3.27926H0.980469L1.16047 3.40835L1.09202 3.61687L1.27202 3.48778L1.45202 3.61687L1.38357 3.40835L1.56357 3.27926H1.34047L1.27202 3.07074Z" fill="white"/>
<path d="M1.27202 4.12573L1.20357 4.33177H0.980469L1.16047 4.46086L1.09202 4.66938L1.27202 4.54029L1.45202 4.66938L1.38357 4.46086L1.56357 4.33177H1.34047L1.27202 4.12573Z" fill="white"/>
<mask id="path-19-inside-1_1306_24964" fill="white">
<path d="M1.34047 5.38432L1.27202 5.17828L1.20357 5.38432H0.980469L1.16047 5.51341L1.09202 5.72193L1.27202 5.59284L1.45202 5.72193L1.38357 5.51341L1.56357 5.38432H1.34047Z"/>
</mask>
<path d="M1.34047 5.38432L1.27202 5.17828L1.20357 5.38432H0.980469L1.16047 5.51341L1.09202 5.72193L1.27202 5.59284L1.45202 5.72193L1.38357 5.51341L1.56357 5.38432H1.34047Z" fill="white"/>
<path d="M1.34047 5.38432L0.39147 5.6996L0.618949 6.38432H1.34047V5.38432ZM1.27202 5.17828L2.22102 4.863L1.27202 2.00649L0.323019 4.863L1.27202 5.17828ZM1.20357 5.38432V6.38432H1.92509L2.15257 5.6996L1.20357 5.38432ZM0.980469 5.38432V4.38432H-2.1299L0.397698 6.19696L0.980469 5.38432ZM1.16047 5.51341L2.11059 5.8253L2.33939 5.12829L1.74324 4.70077L1.16047 5.51341ZM1.09202 5.72193L0.141901 5.41003L-0.812873 8.31855L1.67479 6.53456L1.09202 5.72193ZM1.27202 5.59284L1.85479 4.78021L1.27202 4.36228L0.689248 4.78021L1.27202 5.59284ZM1.45202 5.72193L0.869248 6.53456L3.35691 8.31855L2.40214 5.41003L1.45202 5.72193ZM1.38357 5.51341L0.800796 4.70077L0.204645 5.12829L0.43345 5.8253L1.38357 5.51341ZM1.56357 5.38432L2.14634 6.19696L4.67394 4.38432H1.56357V5.38432ZM2.28947 5.06904L2.22102 4.863L0.323019 5.49356L0.39147 5.6996L2.28947 5.06904ZM0.323019 4.863L0.254568 5.06904L2.15257 5.6996L2.22102 5.49356L0.323019 4.863ZM1.20357 4.38432H0.980469V6.38432H1.20357V4.38432ZM0.397698 6.19696L0.577698 6.32604L1.74324 4.70077L1.56324 4.57169L0.397698 6.19696ZM0.210352 5.20151L0.141901 5.41003L2.04214 6.03382L2.11059 5.8253L0.210352 5.20151ZM1.67479 6.53456L1.85479 6.40548L0.689248 4.78021L0.509248 4.90929L1.67479 6.53456ZM0.689248 6.40548L0.869248 6.53456L2.03479 4.90929L1.85479 4.78021L0.689248 6.40548ZM2.40214 5.41003L2.33368 5.20151L0.43345 5.8253L0.501901 6.03382L2.40214 5.41003ZM1.96634 6.32604L2.14634 6.19696L0.980796 4.57169L0.800796 4.70077L1.96634 6.32604ZM1.56357 4.38432H1.34047V6.38432H1.56357V4.38432Z" fill="white" mask="url(#path-19-inside-1_1306_24964)"/>
<mask id="path-21-inside-2_1306_24964" fill="white">
<path d="M1.90385 1.49194L1.8354 1.70046H1.6123L1.7923 1.82955L1.72385 2.03559L1.90385 1.9065L2.08639 2.03559L2.01794 1.82955L2.19794 1.70046H1.97484L1.90385 1.49194Z"/>
</mask>
<path d="M1.90385 1.49194L1.8354 1.70046H1.6123L1.7923 1.82955L1.72385 2.03559L1.90385 1.9065L2.08639 2.03559L2.01794 1.82955L2.19794 1.70046H1.97484L1.90385 1.49194Z" fill="white"/>
<path d="M1.90385 1.49194L2.8505 1.16968L1.88661 -1.66176L0.953737 1.18005L1.90385 1.49194ZM1.8354 1.70046V2.70046H2.55964L2.78552 2.01236L1.8354 1.70046ZM1.6123 1.70046V0.700464H-1.49807L1.02953 2.5131L1.6123 1.70046ZM1.7923 1.82955L2.7413 2.14483L2.97346 1.44603L2.37508 1.01691L1.7923 1.82955ZM1.72385 2.03559L0.774855 1.72031L-0.196145 4.64305L2.30662 2.84822L1.72385 2.03559ZM1.90385 1.9065L2.48124 1.09003L1.8998 0.67885L1.32108 1.09387L1.90385 1.9065ZM2.08639 2.03559L1.509 2.85206L3.99557 4.6105L3.03539 1.72031L2.08639 2.03559ZM2.01794 1.82955L1.43517 1.01691L0.836785 1.44603L1.06894 2.14483L2.01794 1.82955ZM2.19794 1.70046L2.78071 2.5131L5.30831 0.700464H2.19794V1.70046ZM1.97484 1.70046L1.02819 2.02273L1.25891 2.70046H1.97484V1.70046ZM0.953737 1.18005L0.885286 1.38857L2.78552 2.01236L2.85397 1.80384L0.953737 1.18005ZM1.8354 0.700464H1.6123V2.70046H1.8354V0.700464ZM1.02953 2.5131L1.20953 2.64219L2.37508 1.01691L2.19508 0.887828L1.02953 2.5131ZM0.843306 1.51427L0.774855 1.72031L2.67285 2.35087L2.7413 2.14483L0.843306 1.51427ZM2.30662 2.84822L2.48662 2.71914L1.32108 1.09387L1.14108 1.22295L2.30662 2.84822ZM1.32647 2.72297L1.509 2.85206L2.66378 1.21912L2.48124 1.09003L1.32647 2.72297ZM3.03539 1.72031L2.96694 1.51427L1.06894 2.14483L1.13739 2.35087L3.03539 1.72031ZM2.60071 2.64219L2.78071 2.5131L1.61517 0.887828L1.43517 1.01691L2.60071 2.64219ZM2.19794 0.700464H1.97484V2.70046H2.19794V0.700464ZM2.92149 1.3782L2.8505 1.16968L0.957204 1.81421L1.02819 2.02273L2.92149 1.3782Z" fill="white" mask="url(#path-21-inside-2_1306_24964)"/>
<mask id="path-23-inside-3_1306_24964" fill="white">
<path d="M1.90385 2.54449L1.8354 2.75302H1.6123L1.7923 2.8821L1.72385 3.08814L1.90385 2.96154L2.08639 3.08814L2.01794 2.8821L2.19794 2.75302H1.97484L1.90385 2.54449Z"/>
</mask>
<path d="M1.90385 2.54449L1.8354 2.75302H1.6123L1.7923 2.8821L1.72385 3.08814L1.90385 2.96154L2.08639 3.08814L2.01794 2.8821L2.19794 2.75302H1.97484L1.90385 2.54449Z" fill="white"/>
<path d="M1.90385 2.54449L2.8505 2.22223L1.88661 -0.609206L0.953737 2.2326L1.90385 2.54449ZM1.8354 2.75302V3.75302H2.55964L2.78552 3.06491L1.8354 2.75302ZM1.6123 2.75302V1.75302H-1.49807L1.02953 3.56565L1.6123 2.75302ZM1.7923 2.8821L2.7413 3.19738L2.97346 2.49859L2.37508 2.06946L1.7923 2.8821ZM1.72385 3.08814L0.774855 2.77286L-0.181204 5.65063L2.29915 3.90608L1.72385 3.08814ZM1.90385 2.96154L2.47377 2.13983L1.89985 1.74178L1.32856 2.14359L1.90385 2.96154ZM2.08639 3.08814L1.51647 3.90984L3.981 5.61918L3.03539 2.77286L2.08639 3.08814ZM2.01794 2.8821L1.43517 2.06946L0.836785 2.49858L1.06894 3.19738L2.01794 2.8821ZM2.19794 2.75302L2.78071 3.56565L5.30832 1.75302H2.19794V2.75302ZM1.97484 2.75302L1.02819 3.07528L1.25891 3.75302H1.97484V2.75302ZM0.953737 2.2326L0.885286 2.44112L2.78552 3.06491L2.85397 2.85639L0.953737 2.2326ZM1.8354 1.75302H1.6123V3.75302H1.8354V1.75302ZM1.02953 3.56565L1.20953 3.69474L2.37508 2.06946L2.19508 1.94038L1.02953 3.56565ZM0.843306 2.56682L0.774855 2.77286L2.67285 3.40342L2.7413 3.19738L0.843306 2.56682ZM2.29915 3.90608L2.47915 3.77948L1.32856 2.14359L1.14856 2.27019L2.29915 3.90608ZM1.33394 3.78324L1.51647 3.90984L2.6563 2.26644L2.47377 2.13983L1.33394 3.78324ZM3.03539 2.77286L2.96694 2.56682L1.06894 3.19738L1.13739 3.40342L3.03539 2.77286ZM2.60071 3.69474L2.78071 3.56565L1.61517 1.94038L1.43517 2.06946L2.60071 3.69474ZM2.19794 1.75302H1.97484V3.75302H2.19794V1.75302ZM2.92149 2.43075L2.8505 2.22223L0.957204 2.86676L1.02819 3.07528L2.92149 2.43075Z" fill="white" mask="url(#path-23-inside-3_1306_24964)"/>
<mask id="path-25-inside-4_1306_24964" fill="white">
<path d="M1.90385 3.59949L1.8354 3.80553H1.6123L1.7923 3.93461L1.72385 4.14313L1.90385 4.01405L2.08639 4.14313L2.01794 3.93461L2.19794 3.80553H1.97484L1.90385 3.59949Z"/>
</mask>
<path d="M1.90385 3.59949L1.8354 3.80553H1.6123L1.7923 3.93461L1.72385 4.14313L1.90385 4.01405L2.08639 4.14313L2.01794 3.93461L2.19794 3.80553H1.97484L1.90385 3.59949Z" fill="white"/>
<path d="M1.90385 3.59949L2.84931 3.27375L1.88663 0.479535L0.954855 3.28421L1.90385 3.59949ZM1.8354 3.80553V4.80553H2.55692L2.7844 4.12081L1.8354 3.80553ZM1.6123 3.80553V2.80553H-1.49807L1.02953 4.61816L1.6123 3.80553ZM1.7923 3.93461L2.74242 4.2465L2.97123 3.5495L2.37508 3.12197L1.7923 3.93461ZM1.72385 4.14313L0.773737 3.83124L-0.181036 6.73976L2.30663 4.95577L1.72385 4.14313ZM1.90385 4.01405L2.48124 3.19758L1.8998 2.78639L1.32108 3.20141L1.90385 4.01405ZM2.08639 4.14313L1.509 4.9596L3.9807 6.70753L3.03651 3.83124L2.08639 4.14313ZM2.01794 3.93461L1.43517 3.12197L0.839017 3.5495L1.06782 4.2465L2.01794 3.93461ZM2.19794 3.80553L2.78071 4.61816L5.30831 2.80553H2.19794V3.80553ZM1.97484 3.80553L1.02938 4.13126L1.26168 4.80553H1.97484V3.80553ZM0.954855 3.28421L0.886404 3.49025L2.7844 4.12081L2.85285 3.91477L0.954855 3.28421ZM1.8354 2.80553H1.6123V4.80553H1.8354V2.80553ZM1.02953 4.61816L1.20953 4.74725L2.37508 3.12197L2.19508 2.99289L1.02953 4.61816ZM0.842187 3.62272L0.773737 3.83124L2.67397 4.45502L2.74242 4.2465L0.842187 3.62272ZM2.30663 4.95577L2.48663 4.82668L1.32108 3.20141L1.14108 3.3305L2.30663 4.95577ZM1.32647 4.83052L1.509 4.9596L2.66378 3.32666L2.48124 3.19758L1.32647 4.83052ZM3.03651 3.83124L2.96806 3.62272L1.06782 4.2465L1.13627 4.45502L3.03651 3.83124ZM2.60071 4.74725L2.78071 4.61816L1.61517 2.99289L1.43517 3.12197L2.60071 4.74725ZM2.19794 2.80553H1.97484V4.80553H2.19794V2.80553ZM2.9203 3.47979L2.84931 3.27375L0.958393 3.92522L1.02938 4.13126L2.9203 3.47979Z" fill="white" mask="url(#path-25-inside-4_1306_24964)"/>
<mask id="path-27-inside-5_1306_24964" fill="white">
<path d="M1.97484 4.85808L1.90385 4.65204L1.8354 4.85808H1.6123L1.7923 4.98716L1.72385 5.19568L1.90385 5.0666L2.08639 5.19568L2.01794 4.98716L2.19794 4.85808H1.97484Z"/>
</mask>
<path d="M1.97484 4.85808L1.90385 4.65204L1.8354 4.85808H1.6123L1.7923 4.98716L1.72385 5.19568L1.90385 5.0666L2.08639 5.19568L2.01794 4.98716L2.19794 4.85808H1.97484Z" fill="white"/>
<path d="M1.97484 4.85808L1.02938 5.18381L1.26168 5.85808H1.97484V4.85808ZM1.90385 4.65204L2.84931 4.3263L1.88663 1.53209L0.954855 4.33676L1.90385 4.65204ZM1.8354 4.85808V5.85808H2.55692L2.7844 5.17336L1.8354 4.85808ZM1.6123 4.85808V3.85808H-1.49807L1.02953 5.67071L1.6123 4.85808ZM1.7923 4.98716L2.74242 5.29905L2.97123 4.60205L2.37508 4.17453L1.7923 4.98716ZM1.72385 5.19568L0.773737 4.88379L-0.181036 7.79231L2.30663 6.00832L1.72385 5.19568ZM1.90385 5.0666L2.48124 4.25013L1.8998 3.83894L1.32108 4.25396L1.90385 5.0666ZM2.08639 5.19568L1.509 6.01215L3.9807 7.76008L3.03651 4.88379L2.08639 5.19568ZM2.01794 4.98716L1.43517 4.17453L0.839017 4.60205L1.06782 5.29905L2.01794 4.98716ZM2.19794 4.85808L2.78071 5.67071L5.30831 3.85808H2.19794V4.85808ZM2.9203 4.53234L2.84931 4.3263L0.958393 4.97778L1.02938 5.18381L2.9203 4.53234ZM0.954855 4.33676L0.886404 4.5428L2.7844 5.17336L2.85285 4.96732L0.954855 4.33676ZM1.8354 3.85808H1.6123V5.85808H1.8354V3.85808ZM1.02953 5.67071L1.20953 5.7998L2.37508 4.17453L2.19508 4.04544L1.02953 5.67071ZM0.842187 4.67527L0.773737 4.88379L2.67397 5.50758L2.74242 5.29905L0.842187 4.67527ZM2.30663 6.00832L2.48663 5.87923L1.32108 4.25396L1.14108 4.38305L2.30663 6.00832ZM1.32647 5.88307L1.509 6.01215L2.66378 4.37921L2.48124 4.25013L1.32647 5.88307ZM3.03651 4.88379L2.96806 4.67527L1.06782 5.29905L1.13627 5.50758L3.03651 4.88379ZM2.60071 5.7998L2.78071 5.67071L1.61517 4.04544L1.43517 4.17453L2.60071 5.7998ZM2.19794 3.85808H1.97484V5.85808H2.19794V3.85808Z" fill="white" mask="url(#path-27-inside-5_1306_24964)"/>
<mask id="path-29-inside-6_1306_24964" fill="white">
<path d="M2.53764 0.965637L2.46919 1.17416H2.24609L2.42609 1.30076L2.35764 1.50928L2.53764 1.3802L2.71764 1.50928L2.64919 1.30076L2.82919 1.17416H2.60609L2.53764 0.965637Z"/>
</mask>
<path d="M2.53764 0.965637L2.46919 1.17416H2.24609L2.42609 1.30076L2.35764 1.50928L2.53764 1.3802L2.71764 1.50928L2.64919 1.30076L2.82919 1.17416H2.60609L2.53764 0.965637Z" fill="white"/>
<path d="M2.53764 0.965637L3.48776 0.653745L2.53764 -2.24059L1.58753 0.653744L2.53764 0.965637ZM2.46919 1.17416V2.17416H3.19343L3.41931 1.48605L2.46919 1.17416ZM2.24609 1.17416V0.174158H-0.913915L1.6708 1.9921L2.24609 1.17416ZM2.42609 1.30076L3.37621 1.61265L3.60722 0.908924L3.00139 0.482816L2.42609 1.30076ZM2.35764 1.50928L1.40753 1.19739L0.452755 4.10591L2.94041 2.32192L2.35764 1.50928ZM2.53764 1.3802L3.12041 0.56756L2.53764 0.149635L1.95487 0.56756L2.53764 1.3802ZM2.71764 1.50928L2.13487 2.32192L4.62254 4.10591L3.66776 1.19739L2.71764 1.50928ZM2.64919 1.30076L2.0739 0.482816L1.46806 0.908925L1.69908 1.61265L2.64919 1.30076ZM2.82919 1.17416L3.40449 1.9921L5.9892 0.174158H2.82919V1.17416ZM2.60609 1.17416L1.65598 1.48605L1.88186 2.17416H2.60609V1.17416ZM1.58753 0.653744L1.51908 0.862265L3.41931 1.48605L3.48776 1.27753L1.58753 0.653744ZM2.46919 0.174158H2.24609V2.17416H2.46919V0.174158ZM1.6708 1.9921L1.8508 2.1187L3.00139 0.482816L2.82139 0.356214L1.6708 1.9921ZM1.47598 0.988868L1.40753 1.19739L3.30776 1.82117L3.37621 1.61265L1.47598 0.988868ZM2.94041 2.32192L3.12041 2.19283L1.95487 0.56756L1.77487 0.696645L2.94041 2.32192ZM1.95487 2.19283L2.13487 2.32192L3.30041 0.696645L3.12041 0.56756L1.95487 2.19283ZM3.66776 1.19739L3.59931 0.988867L1.69908 1.61265L1.76753 1.82117L3.66776 1.19739ZM3.22449 2.1187L3.40449 1.9921L2.2539 0.356214L2.0739 0.482816L3.22449 2.1187ZM2.82919 0.174158H2.60609V2.17416H2.82919V0.174158ZM3.55621 0.862266L3.48776 0.653745L1.58753 1.27753L1.65598 1.48605L3.55621 0.862266Z" fill="white" mask="url(#path-29-inside-6_1306_24964)"/>
<mask id="path-31-inside-7_1306_24964" fill="white">
<path d="M2.53764 2.01819L2.46919 2.22671H2.24609L2.42609 2.35579L2.35764 2.56183L2.53764 2.43523L2.71764 2.56183L2.64919 2.35579L2.82919 2.22671H2.60609L2.53764 2.01819Z"/>
</mask>
<path d="M2.53764 2.01819L2.46919 2.22671H2.24609L2.42609 2.35579L2.35764 2.56183L2.53764 2.43523L2.71764 2.56183L2.64919 2.35579L2.82919 2.22671H2.60609L2.53764 2.01819Z" fill="white"/>
<path d="M2.53764 2.01819L3.48776 1.7063L2.53764 -1.18804L1.58753 1.7063L2.53764 2.01819ZM2.46919 2.22671V3.22671H3.19343L3.41931 2.5386L2.46919 2.22671ZM2.24609 2.22671V1.22671H-0.864285L1.66332 3.03935L2.24609 2.22671ZM2.42609 2.35579L3.37509 2.67107L3.60725 1.97228L3.00886 1.54316L2.42609 2.35579ZM2.35764 2.56183L1.40864 2.24655L0.452587 5.12432L2.93294 3.37978L2.35764 2.56183ZM2.53764 2.43523L3.11294 1.61729L2.53764 1.21265L1.96235 1.61729L2.53764 2.43523ZM2.71764 2.56183L2.14235 3.37978L4.6227 5.12432L3.66664 2.24655L2.71764 2.56183ZM2.64919 2.35579L2.06642 1.54316L1.46804 1.97228L1.70019 2.67107L2.64919 2.35579ZM2.82919 2.22671L3.41196 3.03935L5.93957 1.22671H2.82919V2.22671ZM2.60609 2.22671L1.65598 2.5386L1.88186 3.22671H2.60609V2.22671ZM1.58753 1.7063L1.51908 1.91482L3.41931 2.5386L3.48776 2.33008L1.58753 1.7063ZM2.46919 1.22671H2.24609V3.22671H2.46919V1.22671ZM1.66332 3.03935L1.84332 3.16843L3.00886 1.54316L2.82886 1.41407L1.66332 3.03935ZM1.47709 2.04052L1.40864 2.24655L3.30664 2.87711L3.37509 2.67107L1.47709 2.04052ZM2.93294 3.37978L3.11294 3.25318L1.96235 1.61729L1.78235 1.74389L2.93294 3.37978ZM1.96235 3.25318L2.14235 3.37978L3.29294 1.74389L3.11294 1.61729L1.96235 3.25318ZM3.66664 2.24655L3.59819 2.04051L1.70019 2.67107L1.76864 2.87711L3.66664 2.24655ZM3.23196 3.16843L3.41196 3.03935L2.24642 1.41407L2.06642 1.54316L3.23196 3.16843ZM2.82919 1.22671H2.60609V3.22671H2.82919V1.22671ZM3.55621 1.91482L3.48776 1.7063L1.58753 2.33008L1.65598 2.5386L3.55621 1.91482Z" fill="white" mask="url(#path-31-inside-7_1306_24964)"/>
<mask id="path-33-inside-8_1306_24964" fill="white">
<path d="M2.53764 3.07074L2.46919 3.27926H2.24609L2.42609 3.40835L2.35764 3.61687L2.53764 3.48778L2.71764 3.61687L2.64919 3.40835L2.82919 3.27926H2.60609L2.53764 3.07074Z"/>
</mask>
<path d="M2.53764 3.07074L2.46919 3.27926H2.24609L2.42609 3.40835L2.35764 3.61687L2.53764 3.48778L2.71764 3.61687L2.64919 3.40835L2.82919 3.27926H2.60609L2.53764 3.07074Z" fill="white"/>
<path d="M2.53764 3.07074L3.48776 2.75885L2.53764 -0.135493L1.58753 2.75885L2.53764 3.07074ZM2.46919 3.27926V4.27926H3.19343L3.41931 3.59115L2.46919 3.27926ZM2.24609 3.27926V2.27926H-0.864279L1.66332 4.0919L2.24609 3.27926ZM2.42609 3.40835L3.37621 3.72024L3.60502 3.02323L3.00887 2.59571L2.42609 3.40835ZM2.35764 3.61687L1.40753 3.30497L0.452755 6.21349L2.94041 4.4295L2.35764 3.61687ZM2.53764 3.48778L3.12041 2.67515L2.53764 2.25722L1.95487 2.67515L2.53764 3.48778ZM2.71764 3.61687L2.13487 4.4295L4.62254 6.2135L3.66776 3.30497L2.71764 3.61687ZM2.64919 3.40835L2.06642 2.59571L1.47027 3.02323L1.69908 3.72024L2.64919 3.40835ZM2.82919 3.27926L3.41196 4.0919L5.93957 2.27926H2.82919V3.27926ZM2.60609 3.27926L1.65598 3.59115L1.88186 4.27926H2.60609V3.27926ZM1.58753 2.75885L1.51908 2.96737L3.41931 3.59115L3.48776 3.38263L1.58753 2.75885ZM2.46919 2.27926H2.24609V4.27926H2.46919V2.27926ZM1.66332 4.0919L1.84332 4.22098L3.00887 2.59571L2.82887 2.46662L1.66332 4.0919ZM1.47598 3.09645L1.40753 3.30497L3.30776 3.92876L3.37621 3.72024L1.47598 3.09645ZM2.94041 4.4295L3.12041 4.30042L1.95487 2.67515L1.77487 2.80423L2.94041 4.4295ZM1.95487 4.30042L2.13487 4.4295L3.30041 2.80423L3.12041 2.67515L1.95487 4.30042ZM3.66776 3.30497L3.59931 3.09645L1.69908 3.72024L1.76753 3.92876L3.66776 3.30497ZM3.23196 4.22098L3.41196 4.0919L2.24642 2.46662L2.06642 2.59571L3.23196 4.22098ZM2.82919 2.27926H2.60609V4.27926H2.82919V2.27926ZM3.55621 2.96737L3.48776 2.75885L1.58753 3.38263L1.65598 3.59115L3.55621 2.96737Z" fill="white" mask="url(#path-33-inside-8_1306_24964)"/>
<path d="M2.53764 4.12573L2.46919 4.33177H2.24609L2.42609 4.46086L2.35764 4.66938L2.53764 4.54029L2.71764 4.66938L2.64919 4.46086L2.82919 4.33177H2.60609L2.53764 4.12573Z" fill="white"/>
<path d="M2.60609 5.38432L2.53764 5.17828L2.46919 5.38432H2.24609L2.42609 5.51341L2.35764 5.72193L2.53764 5.59284L2.71764 5.72193L2.64919 5.51341L2.82919 5.38432H2.60609Z" fill="white"/>
<path d="M3.1685 1.49194L3.10005 1.70046H2.87695L3.05695 1.82955L2.9885 2.03559L3.1685 1.9065L3.35104 2.03559L3.28259 1.82955L3.46259 1.70046H3.23949L3.1685 1.49194Z" fill="white"/>
<path d="M3.1685 2.54449L3.10005 2.75302H2.87695L3.05695 2.8821L2.9885 3.08814L3.1685 2.96154L3.35104 3.08814L3.28259 2.8821L3.46259 2.75302H3.23949L3.1685 2.54449Z" fill="white"/>
<path d="M3.1685 3.59949L3.10005 3.80553H2.87695L3.05695 3.93461L2.9885 4.14313L3.1685 4.01405L3.35104 4.14313L3.28259 3.93461L3.46259 3.80553H3.23949L3.1685 3.59949Z" fill="white"/>
<path d="M3.23949 4.85808L3.1685 4.65204L3.10005 4.85808H2.87695L3.05695 4.98716L2.9885 5.19568L3.1685 5.0666L3.35104 5.19568L3.28259 4.98716L3.46259 4.85808H3.23949Z" fill="white"/>
<path d="M3.80229 0.965637L3.73384 1.17416H3.51074L3.69074 1.30076L3.62229 1.50928L3.80229 1.3802L3.98229 1.50928L3.91384 1.30076L4.09384 1.17416H3.87074L3.80229 0.965637Z" fill="white"/>
<path d="M3.80229 2.01819L3.73384 2.22671H3.51074L3.69074 2.35579L3.62229 2.56183L3.80229 2.43523L3.98229 2.56183L3.91384 2.35579L4.09384 2.22671H3.87074L3.80229 2.01819Z" fill="white"/>
<path d="M3.80229 3.07074L3.73384 3.27926H3.51074L3.69074 3.40835L3.62229 3.61687L3.80229 3.48778L3.98229 3.61687L3.91384 3.40835L4.09384 3.27926H3.87074L3.80229 3.07074Z" fill="white"/>
<path d="M3.80229 4.12573L3.73384 4.33177H3.51074L3.69074 4.46086L3.62229 4.66938L3.80229 4.54029L3.98229 4.66938L3.91384 4.46086L4.09384 4.33177H3.87074L3.80229 4.12573Z" fill="white"/>
<path d="M3.87074 5.38432L3.80229 5.17828L3.73384 5.38432H3.51074L3.69074 5.51341L3.62229 5.72193L3.80229 5.59284L3.98229 5.72193L3.91384 5.51341L4.09384 5.38432H3.87074Z" fill="white"/>
<path d="M4.43413 1.49194L4.36568 1.70046H4.14258L4.32258 1.82955L4.25413 2.03559L4.43413 1.9065L4.61666 2.03559L4.54568 1.82955L4.72821 1.70046H4.50511L4.43413 1.49194Z" fill="white"/>
<path d="M4.43413 2.54449L4.36568 2.75302H4.14258L4.32258 2.8821L4.25413 3.08814L4.43413 2.96154L4.61666 3.08814L4.54568 2.8821L4.72821 2.75302H4.50511L4.43413 2.54449Z" fill="white"/>
<path d="M4.43413 3.59949L4.36568 3.80553H4.14258L4.32258 3.93461L4.25413 4.14313L4.43413 4.01405L4.61666 4.14313L4.54568 3.93461L4.72821 3.80553H4.50511L4.43413 3.59949Z" fill="white"/>
<path d="M4.50511 4.85808L4.43413 4.65204L4.36568 4.85808H4.14258L4.32258 4.98716L4.25413 5.19568L4.43413 5.0666L4.61666 5.19568L4.54568 4.98716L4.72821 4.85808H4.50511Z" fill="white"/>
<path d="M5.06792 0.965637L4.99947 1.17416H4.77637L4.95637 1.30076L4.88792 1.50928L5.06792 1.3802L5.24792 1.50928L5.17947 1.30076L5.35947 1.17416H5.13637L5.06792 0.965637Z" fill="white"/>
<path d="M5.06792 2.01819L4.99947 2.22671H4.77637L4.95637 2.35579L4.88792 2.56183L5.06792 2.43523L5.24792 2.56183L5.17947 2.35579L5.35947 2.22671H5.13637L5.06792 2.01819Z" fill="white"/>
<path d="M5.06792 3.07074L4.99947 3.27926H4.77637L4.95637 3.40835L4.88792 3.61687L5.06792 3.48778L5.24792 3.61687L5.17947 3.40835L5.35947 3.27926H5.13637L5.06792 3.07074Z" fill="white"/>
<path d="M5.06792 4.12573L4.99947 4.33177H4.77637L4.95637 4.46086L4.88792 4.66938L5.06792 4.54029L5.24792 4.66938L5.17947 4.46086L5.35947 4.33177H5.13637L5.06792 4.12573Z" fill="white"/>
<path d="M5.13637 5.38432L5.06792 5.17828L4.99947 5.38432H4.77637L4.95637 5.51341L4.88792 5.72193L5.06792 5.59284L5.24792 5.72193L5.17947 5.51341L5.35947 5.38432H5.13637Z" fill="white"/>
<path d="M5.69878 1.49194L5.63032 1.70046H5.40723L5.58723 1.82955L5.51878 2.03559L5.69878 1.9065L5.88131 2.03559L5.81033 1.82955L5.99286 1.70046H5.76976L5.69878 1.49194Z" fill="white"/>
<path d="M5.69878 2.54449L5.63032 2.75302H5.40723L5.58723 2.8821L5.51878 3.08814L5.69878 2.96154L5.88131 3.08814L5.81033 2.8821L5.99286 2.75302H5.76976L5.69878 2.54449Z" fill="white"/>
<path d="M5.69878 3.59949L5.63032 3.80553H5.40723L5.58723 3.93461L5.51878 4.14313L5.69878 4.01405L5.88131 4.14313L5.81033 3.93461L5.99286 3.80553H5.76976L5.69878 3.59949Z" fill="white"/>
<path d="M5.76976 4.85808L5.69878 4.65204L5.63032 4.85808H5.40723L5.58723 4.98716L5.51878 5.19568L5.69878 5.0666L5.88131 5.19568L5.81033 4.98716L5.99286 4.85808H5.76976Z" fill="white"/>
<path d="M6.33256 0.965637L6.26411 1.17416H6.04102L6.22102 1.30076L6.15257 1.50928L6.33256 1.3802L6.51257 1.50928L6.44411 1.30076L6.62411 1.17416H6.40102L6.33256 0.965637Z" fill="white"/>
<path d="M6.33256 2.01819L6.26411 2.22671H6.04102L6.22102 2.35579L6.15257 2.56183L6.33256 2.43523L6.51257 2.56183L6.44411 2.35579L6.62411 2.22671H6.40102L6.33256 2.01819Z" fill="white"/>
<path d="M6.33256 3.07074L6.26411 3.27926H6.04102L6.22102 3.40835L6.15257 3.61687L6.33256 3.48778L6.51257 3.61687L6.44411 3.40835L6.62411 3.27926H6.40102L6.33256 3.07074Z" fill="white"/>
<path d="M6.33256 4.12573L6.26411 4.33177H6.04102L6.22102 4.46086L6.15257 4.66938L6.33256 4.54029L6.51257 4.66938L6.44411 4.46086L6.62411 4.33177H6.40102L6.33256 4.12573Z" fill="white"/>
<path d="M6.40102 5.38432L6.33256 5.17828L6.26411 5.38432H6.04102L6.22102 5.51341L6.15257 5.72193L6.33256 5.59284L6.51257 5.72193L6.44411 5.51341L6.62411 5.38432H6.40102Z" fill="white"/>
<path d="M6.9644 1.49194L6.89595 1.70046H6.67285L6.85285 1.82955L6.7844 2.03559L6.9644 1.9065L7.14694 2.03559L7.07595 1.82955L7.25848 1.70046H7.03539L6.9644 1.49194Z" fill="white"/>
<path d="M6.9644 2.54449L6.89595 2.75302H6.67285L6.85285 2.8821L6.7844 3.08814L6.9644 2.96154L7.14694 3.08814L7.07595 2.8821L7.25848 2.75302H7.03539L6.9644 2.54449Z" fill="white"/>
<path d="M6.9644 3.59949L6.89595 3.80553H6.67285L6.85285 3.93461L6.7844 4.14313L6.9644 4.01405L7.14694 4.14313L7.07595 3.93461L7.25848 3.80553H7.03539L6.9644 3.59949Z" fill="white"/>
<path d="M7.03539 4.85808L6.9644 4.65204L6.89595 4.85808H6.67285L6.85285 4.98716L6.7844 5.19568L6.9644 5.0666L7.14694 5.19568L7.07595 4.98716L7.25848 4.85808H7.03539Z" fill="white"/>
<path d="M7.48664 1.30076L7.41819 1.50928L7.59819 1.3802L7.77819 1.50928L7.70974 1.30076L7.88974 1.17416H7.66664L7.59819 0.965637L7.52974 1.17416H7.30664L7.48664 1.30076Z" fill="white"/>
<path d="M7.59819 2.01819L7.52974 2.22671H7.30664L7.48664 2.35579L7.41819 2.56183L7.59819 2.43523L7.77819 2.56183L7.70974 2.35579L7.88974 2.22671H7.66664L7.59819 2.01819Z" fill="white"/>
<path d="M7.59819 3.07074L7.52974 3.27926H7.30664L7.48664 3.40835L7.41819 3.61687L7.59819 3.48778L7.77819 3.61687L7.70974 3.40835L7.88974 3.27926H7.66664L7.59819 3.07074Z" fill="white"/>
<path d="M7.59819 4.12573L7.52974 4.33177H7.30664L7.48664 4.46086L7.41819 4.66938L7.59819 4.54029L7.77819 4.66938L7.70974 4.46086L7.88974 4.33177H7.66664L7.59819 4.12573Z" fill="white"/>
<path d="M7.66664 5.38432L7.59819 5.17828L7.52974 5.38432H7.30664L7.48664 5.51341L7.41819 5.72193L7.59819 5.59284L7.77819 5.72193L7.70974 5.51341L7.88974 5.38432H7.66664Z" fill="white"/>
</g>
<defs>
<clipPath id="clip0_1306_24964">
<rect width="18" height="11.9155" fill="white" transform="translate(0 0.0422363)"/>
</clipPath>
</defs>
</svg>
