<svg width="18" height="12" viewBox="0 0 18 12" fill="none" xmlns="http://www.w3.org/2000/svg">
<path d="M17.9047 2.65125H0.158203V9.35371H17.9047V2.65125Z" fill="#FFCE54"/>
<path d="M16.2937 0.181276H1.7745C1.34687 0.181276 0.936751 0.347614 0.634369 0.643697C0.331986 0.939779 0.162109 1.34135 0.162109 1.76008V2.66367H17.9086V1.76008C17.9086 1.34092 17.7384 0.938972 17.4354 0.642818C17.1325 0.346664 16.7217 0.180617 16.2937 0.181276Z" fill="#ED5565"/>
<path d="M0.158785 10.2697C0.158785 10.6885 0.328662 11.09 0.631045 11.3861C0.933427 11.6822 1.34355 11.8485 1.77118 11.8485H16.2903C16.718 11.8485 17.1281 11.6822 17.4305 11.3861C17.7329 11.09 17.9027 10.6885 17.9027 10.2697V9.36615H0.15625L0.158785 10.2697Z" fill="#ED5565"/>
<path d="M2.96875 6.77701V7.48946C2.96875 7.90075 3.30927 8.23417 3.72931 8.23417H4.1603V6.78694L2.96875 6.77701Z" fill="#F6D660"/>
<path d="M3.34766 6.77701V8.12247C3.38803 8.14526 3.43047 8.16437 3.47442 8.17956V6.77701H3.34766Z" fill="#ED5565"/>
<path d="M3.07422 6.77701V7.85685C3.10873 7.91606 3.15138 7.97036 3.20098 8.01821V6.77701H3.07422Z" fill="#ED5565"/>
<path d="M3.625 6.77699V8.21429C3.65877 8.2165 3.69264 8.2165 3.72641 8.21429H3.75176V6.76706L3.625 6.77699Z" fill="#ED5565"/>
<path d="M4.15196 6.77701H3.89844V8.22424H4.15196V6.77701Z" fill="#ED5565"/>
<path d="M4.15776 5.46133H2.96875V6.77452H4.15776V5.46133Z" fill="#ED5565"/>
<path d="M5.34526 7.48945V6.78445H4.15625V8.23417H4.58724C5.00629 8.2328 5.34527 7.89978 5.34526 7.48945Z" fill="#ED5565"/>
<path d="M5.34526 5.46133H4.15625V6.77452H5.34526V5.46133Z" fill="white"/>
<path d="M4.15684 7.15434C4.36966 7.15434 4.54219 6.9854 4.54219 6.77701C4.54219 6.56862 4.36966 6.39969 4.15684 6.39969C3.94401 6.39969 3.77148 6.56862 3.77148 6.77701C3.77148 6.9854 3.94401 7.15434 4.15684 7.15434Z" fill="#4A89DC" stroke="#ED5565" stroke-width="0.5"/>
<path d="M2.5768 5.63758C2.5768 5.54024 2.49621 5.46133 2.3968 5.46133C2.29739 5.46133 2.2168 5.54024 2.2168 5.63758V7.69549C2.2168 7.79283 2.29739 7.87174 2.3968 7.87174C2.49621 7.87174 2.5768 7.79283 2.5768 7.69549V5.63758Z" fill="white"/>
<path d="M6.09633 5.63758C6.09633 5.54024 6.01574 5.46133 5.91633 5.46133C5.81692 5.46133 5.73633 5.54024 5.73633 5.63758V7.69549C5.73633 7.79283 5.81692 7.87174 5.91633 7.87174C6.01574 7.87174 6.09633 7.79283 6.09633 7.69549V5.63758Z" fill="white"/>
<path d="M5.30609 4.60738C5.30609 4.60738 5.30609 4.59496 5.30609 4.58752C5.30609 4.38892 4.79905 4.22757 4.1475 4.22757C3.49595 4.22757 2.9889 4.38892 2.9889 4.58752C2.98807 4.59577 2.98807 4.60409 2.9889 4.61234L3.24243 4.89782L3.33369 4.87299C3.37087 4.87022 3.40752 4.86271 3.44271 4.85065C3.49217 4.82929 3.54298 4.81105 3.59482 4.79604L3.76214 4.82334L3.87876 4.74639L4.01566 4.79852L4.14496 4.71908L4.26665 4.801L4.41369 4.73646C4.4567 4.76874 4.50157 4.79857 4.54806 4.82583L4.67482 4.76625L4.76355 4.8581L4.89285 4.81093L4.99426 4.92016L5.30609 4.60738Z" fill="#ED5565"/>
<path d="M4.81593 4.8581L4.72467 4.76625C4.72467 4.76625 4.60298 4.82583 4.59283 4.82583C4.5447 4.7986 4.49815 4.76876 4.4534 4.73646L4.29875 4.801L4.16945 4.71909L4.03255 4.79852L3.88805 4.74639L3.76636 4.82335L3.58889 4.79604C3.53457 4.81105 3.48123 4.82929 3.42917 4.85065C3.39223 4.86268 3.35391 4.87019 3.31509 4.87299L3.21875 4.89782L3.29227 4.96236L3.39368 5.13613H4.91481L5.01621 4.96236L5.06692 4.92016L4.96044 4.81093L4.81593 4.8581Z" fill="white"/>
<path d="M4.15384 5.38189C4.53328 5.38189 4.84088 5.27074 4.84088 5.13365C4.84088 4.99655 4.53328 4.88541 4.15384 4.88541C3.7744 4.88541 3.4668 4.99655 3.4668 5.13365C3.4668 5.27074 3.7744 5.38189 4.15384 5.38189Z" stroke="white" stroke-linecap="round" stroke-linejoin="round"/>
<path d="M3.3125 4.95988C3.42151 4.88541 3.65982 4.84818 4.15673 4.84818" stroke="white" stroke-width="0.51" stroke-linecap="round" stroke-linejoin="round"/>
<path d="M4.1543 4.84818C4.66134 4.84818 4.88951 4.88541 4.99852 4.95988" stroke="white" stroke-width="0.51" stroke-linecap="round" stroke-linejoin="round"/>
<path d="M4.15384 5.38189C4.53328 5.38189 4.84088 5.27074 4.84088 5.13365C4.84088 4.99655 4.53328 4.88541 4.15384 4.88541C3.7744 4.88541 3.4668 4.99655 3.4668 5.13365C3.4668 5.27074 3.7744 5.38189 4.15384 5.38189Z" stroke="white" stroke-width="0.5" stroke-linecap="round" stroke-linejoin="round"/>
<path d="M4.15384 5.38189C4.53328 5.38189 4.84088 5.27074 4.84088 5.13365C4.84088 4.99655 4.53328 4.88541 4.15384 4.88541C3.7744 4.88541 3.4668 4.99655 3.4668 5.13365C3.4668 5.27074 3.7744 5.38189 4.15384 5.38189Z" fill="#ED5565"/>
<path d="M3.6023 4.4063C3.55129 4.35683 3.5264 4.2871 3.53481 4.21728C3.54323 4.14746 3.58402 4.08533 3.6454 4.04884C3.78211 3.97845 3.94703 3.98605 4.07638 4.0687L4.15497 4.11835L4.23357 4.0687" stroke="white" stroke-width="0.5" stroke-linecap="round" stroke-linejoin="round"/>
<path d="M3.04044 4.58751C2.98865 4.53439 2.96216 4.46234 2.96747 4.38909C2.97277 4.31583 3.0094 4.24817 3.06833 4.20274C3.20532 4.11845 3.37358 4.09843 3.5272 4.14813" stroke="white" stroke-width="0.5" stroke-linecap="round" stroke-linejoin="round"/>
<path d="M4.71041 4.4063C4.76142 4.35683 4.78632 4.2871 4.7779 4.21728C4.76948 4.14746 4.72869 4.08533 4.66731 4.04884C4.5306 3.97845 4.36568 3.98605 4.23633 4.0687" stroke="white" stroke-width="0.5" stroke-linecap="round" stroke-linejoin="round"/>
<path d="M5.26801 4.58751C5.3198 4.53439 5.34629 4.46234 5.34098 4.38909C5.33568 4.31583 5.29905 4.24817 5.24012 4.20274C5.10313 4.11845 4.93487 4.09843 4.78125 4.14813" stroke="white" stroke-width="0.5" stroke-linecap="round" stroke-linejoin="round"/>
<path d="M4.1543 4.35419V4.12085" stroke="white" stroke-width="0.5" stroke-linecap="round" stroke-linejoin="round"/>
<path d="M5.12012 4.82833C5.04913 4.945 4.8666 4.90777 4.95533 4.75634C4.95533 4.75634 4.89956 4.87798 4.78801 4.85812C4.71956 4.85812 4.68406 4.78365 4.70181 4.69428C4.69508 4.77187 4.62656 4.83015 4.54716 4.82585C4.4204 4.82585 4.43308 4.65953 4.43308 4.65953C4.43308 4.65953 4.43308 4.80599 4.29364 4.80102C4.25598 4.79973 4.22039 4.78383 4.19471 4.75682C4.16903 4.72981 4.15537 4.69392 4.15674 4.65704C4.15952 4.69475 4.14649 4.73194 4.12066 4.76004C4.09483 4.78815 4.05843 4.80473 4.01984 4.80599C3.88294 4.80599 3.8804 4.66449 3.8804 4.66449C3.8804 4.66449 3.8804 4.82088 3.76632 4.83081C3.68691 4.83512 3.6184 4.77683 3.61167 4.69924C3.62688 4.78861 3.59392 4.85067 3.52547 4.86308C3.41392 4.88294 3.35815 4.7613 3.35815 4.7613C3.43927 4.91521 3.26435 4.94997 3.19336 4.83329" stroke="white" stroke-width="0.3" stroke-linecap="round" stroke-linejoin="round"/>
<path d="M4.15391 4.19283C4.29393 4.19283 4.40743 4.08169 4.40743 3.94459C4.40743 3.80749 4.29393 3.69635 4.15391 3.69635C4.0139 3.69635 3.90039 3.80749 3.90039 3.94459C3.90039 4.08169 4.0139 4.19283 4.15391 4.19283Z" fill="#4A89DC"/>
</svg>
