<svg width="18" height="12" viewBox="0 0 18 12" fill="none" xmlns="http://www.w3.org/2000/svg">
<g clip-path="url(#clip0_5012_19131)">
<path d="M17.9061 2.60901H0.159668V9.31147H17.9061V2.60901Z" fill="#FFCE54"/>
<path d="M16.2939 0.13904H1.77475C1.34711 0.13904 0.936995 0.305378 0.634613 0.60146C0.33223 0.897543 0.162354 1.29912 0.162354 1.71784V2.62143H17.9088V1.71784C17.9088 1.29869 17.7386 0.896736 17.4357 0.600582C17.1327 0.304428 16.722 0.138381 16.2939 0.13904Z" fill="#ED5565"/>
<path d="M0.159762 10.2275C0.159762 10.6462 0.329639 11.0478 0.632021 11.3439C0.934404 11.64 1.34452 11.8063 1.77216 11.8063H16.2913C16.7189 11.8063 17.1291 11.64 17.4314 11.3439C17.7338 11.0478 17.9037 10.6462 17.9037 10.2275V9.32391H0.157227L0.159762 10.2275Z" fill="#ED5565"/>
<path d="M2.96875 6.73474V7.44719C2.96875 7.85849 3.30927 8.19191 3.72931 8.19191H4.1603V6.74467L2.96875 6.73474Z" fill="#F6D660"/>
<path d="M3.34912 6.73474V8.0802C3.3895 8.10299 3.43193 8.12211 3.47588 8.13729V6.73474H3.34912Z" fill="#ED5565"/>
<path d="M3.0752 6.73474V7.81458C3.10971 7.8738 3.15236 7.92809 3.20196 7.97594V6.73474H3.0752Z" fill="#ED5565"/>
<path d="M3.62549 6.73478V8.17209C3.65925 8.1743 3.69313 8.1743 3.7269 8.17209H3.75225V6.72485L3.62549 6.73478Z" fill="#ED5565"/>
<path d="M4.15269 6.73474H3.89917V8.18198H4.15269V6.73474Z" fill="#ED5565"/>
<path d="M4.15776 5.41907H2.96875V6.73225H4.15776V5.41907Z" fill="#ED5565"/>
<path d="M5.34673 7.44719V6.74219H4.15771V8.19191H4.5887C5.00776 8.19054 5.34673 7.85752 5.34673 7.44719Z" fill="#ED5565"/>
<path d="M5.34673 5.41907H4.15771V6.73225H5.34673V5.41907Z" fill="white"/>
<path d="M4.15781 7.11207C4.37064 7.11207 4.54317 6.94314 4.54317 6.73475C4.54317 6.52636 4.37064 6.35742 4.15781 6.35742C3.94499 6.35742 3.77246 6.52636 3.77246 6.73475C3.77246 6.94314 3.94499 7.11207 4.15781 7.11207Z" fill="#4A89DC" stroke="#ED5565" stroke-width="0.5"/>
<path d="M2.57826 5.59532C2.57826 5.49798 2.49767 5.41907 2.39826 5.41907C2.29885 5.41907 2.21826 5.49798 2.21826 5.59532V7.65322C2.21826 7.75056 2.29885 7.82947 2.39826 7.82947C2.49767 7.82947 2.57826 7.75056 2.57826 7.65322V5.59532Z" fill="white"/>
<path d="M6.0973 5.59532C6.0973 5.49798 6.01672 5.41907 5.9173 5.41907C5.81789 5.41907 5.7373 5.49798 5.7373 5.59532V7.65322C5.7373 7.75056 5.81789 7.82947 5.9173 7.82947C6.01672 7.82947 6.0973 7.75056 6.0973 7.65322V5.59532Z" fill="white"/>
<path d="M5.30633 4.56517C5.30633 4.56517 5.30633 4.55276 5.30633 4.54531C5.30633 4.34672 4.79929 4.18536 4.14774 4.18536C3.49619 4.18536 2.98915 4.34672 2.98915 4.54531C2.98832 4.55357 2.98832 4.56188 2.98915 4.57013L3.24267 4.85561L3.33394 4.83079C3.37111 4.82801 3.40776 4.8205 3.44295 4.80844C3.49241 4.78708 3.54322 4.76884 3.59506 4.75383L3.76239 4.78114L3.87901 4.70418L4.01591 4.75631L4.1452 4.67688L4.26689 4.7588L4.41394 4.69425C4.45695 4.72653 4.50181 4.75637 4.5483 4.78362L4.67506 4.72404L4.7638 4.81589L4.89309 4.76873L4.9945 4.87795L5.30633 4.56517Z" fill="#ED5565"/>
<path d="M4.81691 4.81589L4.72564 4.72405C4.72564 4.72405 4.60395 4.78362 4.59381 4.78362C4.54568 4.75639 4.49912 4.72656 4.45437 4.69426L4.29973 4.7588L4.17043 4.67688L4.03353 4.75632L3.88902 4.70419L3.76733 4.78114L3.58987 4.75383C3.53554 4.76884 3.48221 4.78708 3.43015 4.80845C3.39321 4.82048 3.35489 4.82798 3.31606 4.83079L3.21973 4.85561L3.29325 4.92015L3.39466 5.09392H4.91578L5.01719 4.92015L5.0679 4.87795L4.96142 4.76873L4.81691 4.81589Z" fill="white"/>
<path d="M4.1553 5.33968C4.53475 5.33968 4.84235 5.22854 4.84235 5.09144C4.84235 4.95434 4.53475 4.8432 4.1553 4.8432C3.77586 4.8432 3.46826 4.95434 3.46826 5.09144C3.46826 5.22854 3.77586 5.33968 4.1553 5.33968Z" stroke="white" stroke-linecap="round" stroke-linejoin="round"/>
<path d="M3.31348 4.91768C3.42249 4.8432 3.6608 4.80597 4.1577 4.80597" stroke="white" stroke-width="0.51" stroke-linecap="round" stroke-linejoin="round"/>
<path d="M4.15527 4.80597C4.66232 4.80597 4.89048 4.8432 4.9995 4.91768" stroke="white" stroke-width="0.51" stroke-linecap="round" stroke-linejoin="round"/>
<path d="M4.1553 5.33968C4.53475 5.33968 4.84235 5.22854 4.84235 5.09144C4.84235 4.95434 4.53475 4.8432 4.1553 4.8432C3.77586 4.8432 3.46826 4.95434 3.46826 5.09144C3.46826 5.22854 3.77586 5.33968 4.1553 5.33968Z" stroke="white" stroke-width="0.5" stroke-linecap="round" stroke-linejoin="round"/>
<path d="M4.1553 5.33968C4.53475 5.33968 4.84235 5.22854 4.84235 5.09144C4.84235 4.95434 4.53475 4.8432 4.1553 4.8432C3.77586 4.8432 3.46826 4.95434 3.46826 5.09144C3.46826 5.22854 3.77586 5.33968 4.1553 5.33968Z" fill="#ED5565"/>
<path d="M3.60254 4.36407C3.55153 4.31459 3.52664 4.24486 3.53506 4.17504C3.54348 4.10522 3.58427 4.04309 3.64564 4.0066C3.78235 3.93621 3.94727 3.94381 4.07663 4.02646L4.15522 4.07611L4.23381 4.02646" stroke="white" stroke-width="0.5" stroke-linecap="round" stroke-linejoin="round"/>
<path d="M3.04239 4.54531C2.99061 4.49219 2.96411 4.42014 2.96942 4.34688C2.97473 4.27363 3.01135 4.20597 3.07028 4.16054C3.20727 4.07625 3.37553 4.05622 3.52915 4.10593" stroke="white" stroke-width="0.5" stroke-linecap="round" stroke-linejoin="round"/>
<path d="M4.71041 4.36407C4.76142 4.31459 4.78632 4.24486 4.7779 4.17504C4.76948 4.10522 4.72869 4.04309 4.66731 4.0066C4.5306 3.93621 4.36568 3.94381 4.23633 4.02646" stroke="white" stroke-width="0.5" stroke-linecap="round" stroke-linejoin="round"/>
<path d="M5.26825 4.54531C5.32004 4.49219 5.34654 4.42014 5.34123 4.34688C5.33592 4.27363 5.2993 4.20597 5.24037 4.16054C5.10338 4.07625 4.93512 4.05622 4.78149 4.10593" stroke="white" stroke-width="0.5" stroke-linecap="round" stroke-linejoin="round"/>
<path d="M4.15527 4.31196V4.07861" stroke="white" stroke-width="0.5" stroke-linecap="round" stroke-linejoin="round"/>
<path d="M5.1211 4.78609C5.05011 4.90276 4.86758 4.86553 4.95631 4.7141C4.95631 4.7141 4.90053 4.83574 4.78898 4.81588C4.72053 4.81588 4.68504 4.74141 4.70279 4.65204C4.69605 4.72963 4.62754 4.78792 4.54814 4.78361C4.42138 4.78361 4.43405 4.61729 4.43405 4.61729C4.43405 4.61729 4.43405 4.76375 4.29462 4.75879C4.25696 4.75749 4.22137 4.74159 4.19569 4.71458C4.17001 4.68758 4.15635 4.65168 4.15772 4.61481C4.1605 4.65252 4.14747 4.68971 4.12164 4.71781C4.09581 4.74591 4.0594 4.7625 4.02081 4.76375C3.88391 4.76375 3.88138 4.62225 3.88138 4.62225C3.88138 4.62225 3.88138 4.77865 3.76729 4.78857C3.68789 4.79288 3.61938 4.7346 3.61265 4.65701C3.62786 4.74637 3.5949 4.80843 3.52645 4.82085C3.4149 4.8407 3.35912 4.71907 3.35912 4.71907C3.44025 4.87298 3.26532 4.90773 3.19434 4.79106" stroke="white" stroke-width="0.3" stroke-linecap="round" stroke-linejoin="round"/>
<path d="M4.15538 4.15059C4.29539 4.15059 4.4089 4.03945 4.4089 3.90235C4.4089 3.76525 4.29539 3.65411 4.15538 3.65411C4.01536 3.65411 3.90186 3.76525 3.90186 3.90235C3.90186 4.03945 4.01536 4.15059 4.15538 4.15059Z" fill="#4A89DC"/>
</g>
<defs>
<clipPath id="clip0_5012_19131">
<rect width="18" height="11.9155" fill="white"/>
</clipPath>
</defs>
</svg>
