<svg width="18" height="12" viewBox="0 0 18 12" fill="none" xmlns="http://www.w3.org/2000/svg">
<path d="M1.61239 0.00248241C0.721894 0.00248241 0 0.709336 0 1.58129V10.0884C0 10.9604 0.721894 11.6673 1.61239 11.6673H5.92225C5.92225 7.77817 5.92225 3.88908 5.92225 0L1.61239 0.00248241Z" fill="#434A54"/>
<path d="M5.91724 0.00250244C5.91724 3.89159 5.91724 7.78067 5.91724 11.6698H11.837C11.837 7.78067 11.837 3.89159 11.837 0.00250244H5.91724Z" fill="#FFCE54"/>
<path d="M16.1315 0.00250244H11.8344C11.8344 3.89159 11.8344 7.78067 11.8344 11.6698H16.1315C17.022 11.6698 17.7439 10.9629 17.7439 10.091V1.58131C17.7439 0.709356 17.022 0.00250244 16.1315 0.00250244Z" fill="#ED5565"/>
</svg>
