<svg width="18" height="12" viewBox="0 0 18 12" fill="none" xmlns="http://www.w3.org/2000/svg">
<g clip-path="url(#clip0_5008_19044)">
<path d="M1.84311 0.210979C0.952606 0.210979 0.230713 0.917832 0.230713 1.78978V10.2969C0.230713 11.1689 0.952606 11.8757 1.84311 11.8757H6.15297C6.15297 7.98666 6.15297 4.09758 6.15297 0.208496L1.84311 0.210979Z" fill="#434A54"/>
<path d="M6.14795 0.210999C6.14795 4.10008 6.14795 7.98917 6.14795 11.8783H12.0677C12.0677 7.98917 12.0677 4.10008 12.0677 0.210999H6.14795Z" fill="#FFCE54"/>
<path d="M16.3624 0.210999H12.0652C12.0652 4.10008 12.0652 7.98917 12.0652 11.8783H16.3624C17.2529 11.8783 17.9748 11.1714 17.9748 10.2994V1.7898C17.9748 0.917853 17.2529 0.210999 16.3624 0.210999Z" fill="#ED5565"/>
</g>
<defs>
<clipPath id="clip0_5008_19044">
<rect width="18" height="11.9155" fill="white"/>
</clipPath>
</defs>
</svg>
