<svg width="18" height="12" viewBox="0 0 18 12" fill="none" xmlns="http://www.w3.org/2000/svg">
<g clip-path="url(#clip0_5008_19081)">
<path d="M1.68588 0.131572C0.79538 0.131572 0.0734863 0.838426 0.0734863 1.71037V10.2175C0.0734863 11.0895 0.79538 11.7963 1.68588 11.7963H5.99574C5.99574 7.90726 5.99574 4.01817 5.99574 0.129089L1.68588 0.131572Z" fill="#57A863"/>
<path d="M5.99072 0.131577C5.99072 4.02066 5.99072 7.90974 5.99072 11.7988H11.9155C11.9155 7.90974 11.9155 4.02066 11.9155 0.131577H5.99072Z" fill="white"/>
<path d="M16.2051 0.131577H11.9155C11.9155 4.02066 11.9155 7.90974 11.9155 11.7988H16.2051C17.0956 11.7988 17.8175 11.092 17.8175 10.22V1.71038C17.8175 0.83843 17.0956 0.131577 16.2051 0.131577Z" fill="#ED5565"/>
</g>
<defs>
<clipPath id="clip0_5008_19081">
<rect width="18" height="11.9155" fill="white"/>
</clipPath>
</defs>
</svg>
