<svg width="18" height="12" viewBox="0 0 18 12" fill="none" xmlns="http://www.w3.org/2000/svg">
<path d="M1.65048 0.0695534C0.759979 0.0695534 0.0380859 0.776407 0.0380859 1.64836V10.1555C0.0380859 11.0275 0.759979 11.7343 1.65048 11.7343H5.96034C5.96034 7.84524 5.96034 3.95616 5.96034 0.067071L1.65048 0.0695534Z" fill="#4758A9"/>
<path d="M5.95532 0.0695534C5.95532 3.95864 5.95532 7.84772 5.95532 11.7368H11.875C11.875 7.84772 11.875 3.95864 11.875 0.0695534H5.95532Z" fill="white"/>
<path d="M16.1697 0.0695534H11.8726C11.8726 3.95864 11.8726 7.84772 11.8726 11.7368H16.1697C17.0602 11.7368 17.7821 11.03 17.7821 10.158V1.65084C17.7828 1.23168 17.6132 0.829471 17.3108 0.532851C17.0083 0.236231 16.5978 0.0695529 16.1697 0.0695534Z" fill="#ED5565"/>
</svg>
