<svg width="24" height="24" viewBox="0 0 24 24" fill="none" xmlns="http://www.w3.org/2000/svg">
<path d="M19.8458 5.59425C19.8458 5.87906 19.7613 6.15746 19.6031 6.39427C19.4448 6.63108 19.2199 6.81565 18.9568 6.92464C18.6937 7.03363 18.4042 7.06214 18.1248 7.00658C17.8455 6.95102 17.5889 6.81387 17.3875 6.61248C17.1861 6.4111 17.049 6.15451 16.9934 5.87518C16.9379 5.59585 16.9664 5.30631 17.0754 5.04319C17.1844 4.78006 17.3689 4.55516 17.6057 4.39693C17.8425 4.2387 18.1209 4.15425 18.4058 4.15425C18.7877 4.15425 19.1539 4.30596 19.424 4.57602C19.694 4.84607 19.8458 5.21234 19.8458 5.59425ZM12 16.0005C11.2089 16.0005 10.4355 15.7659 9.77769 15.3264C9.11988 14.8869 8.60717 14.2621 8.3044 13.5312C8.00163 12.8003 7.92239 11.9961 8.07671 11.2201C8.23102 10.4442 8.61196 9.73143 9.17135 9.17199C9.73074 8.61255 10.4435 8.23155 11.2194 8.07716C11.9953 7.92277 12.7996 8.00193 13.5305 8.30463C14.2615 8.60734 14.8862 9.11998 15.3258 9.77775C15.7654 10.4355 16.0001 11.2089 16.0001 12C16.0002 12.5253 15.8967 13.0455 15.6957 13.5308C15.4947 14.0162 15.2001 14.4572 14.8286 14.8286C14.4572 15.2001 14.0162 15.4947 13.5308 15.6957C13.0455 15.8967 12.5253 16.0005 12 16.0005ZM12 5.838C10.7812 5.838 9.58973 6.19943 8.57633 6.87657C7.56292 7.55372 6.77308 8.51617 6.30667 9.64222C5.84027 10.7683 5.71825 12.0073 5.95606 13.2027C6.19387 14.3981 6.78081 15.4962 7.64268 16.358C8.50454 17.2198 9.6026 17.8067 10.798 18.0444C11.9934 18.2821 13.2325 18.16 14.3585 17.6936C15.4845 17.2271 16.4469 16.4372 17.124 15.4237C17.8011 14.4103 18.1624 13.2188 18.1624 12C18.1624 11.1908 18.003 10.3895 17.6933 9.64182C17.3836 8.89419 16.9297 8.21488 16.3574 7.64268C15.7852 7.07048 15.1059 6.61659 14.3582 6.30695C13.6106 5.9973 12.8092 5.83795 12 5.838ZM12 2.163C15.2044 2.163 15.5835 2.17425 16.8488 2.23275C17.6098 2.24146 18.3636 2.381 19.0774 2.64525C19.5987 2.83763 20.0702 3.1444 20.4574 3.543C20.8561 3.93008 21.1628 4.40166 21.3551 4.923C21.6192 5.63664 21.7588 6.39036 21.7676 7.15125C21.8254 8.41687 21.8377 8.796 21.8377 12C21.8377 15.204 21.8254 15.5839 21.7676 16.8495C21.7589 17.6104 21.6193 18.3641 21.3551 19.0778C21.1554 19.5953 20.8496 20.0654 20.4573 20.4577C20.065 20.85 19.595 21.1558 19.0774 21.3555C18.3637 21.6196 17.61 21.7591 16.8491 21.768C15.5854 21.8258 15.2059 21.8381 12.0004 21.8381C8.79487 21.8381 8.41762 21.8258 7.15162 21.768C6.39097 21.7592 5.6375 21.6196 4.92412 21.3555C4.40283 21.1631 3.93127 20.8563 3.54413 20.4578C3.14551 20.0706 2.83873 19.5991 2.64638 19.0778C2.38226 18.3641 2.24273 17.6104 2.23387 16.8495C2.17612 15.5839 2.16263 15.2044 2.16263 12C2.16263 8.79562 2.175 8.4165 2.23312 7.15125C2.24184 6.39022 2.38137 5.63636 2.64562 4.92263C2.83801 4.40133 3.14478 3.92977 3.54338 3.54262C3.93046 3.14395 4.40203 2.83717 4.92338 2.64488C5.63702 2.38076 6.39073 2.24123 7.15162 2.23238C8.41687 2.175 8.796 2.16225 12.0004 2.16225L12 2.163ZM12 0C8.74125 0 8.3325 0.013875 7.05225 0.072C6.05694 0.0920799 5.07224 0.280753 4.14 0.63C3.33901 0.931042 2.61337 1.40328 2.01375 2.01375C1.40328 2.61337 0.931042 3.33901 0.63 4.14C0.280774 5.07225 0.0921016 6.05694 0.072 7.05225C0.013875 8.3325 0 8.74125 0 12C0 15.2587 0.013875 15.6675 0.072 16.9478C0.0921016 17.9431 0.280774 18.9278 0.63 19.86C0.931042 20.661 1.40328 21.3866 2.01375 21.9862C2.61342 22.5967 3.33905 23.0689 4.14 23.37C5.07227 23.7191 6.05696 23.9076 7.05225 23.9276C8.33212 23.9861 8.73975 24 12 24C15.2603 24 15.6675 23.9861 16.9478 23.9276C17.9432 23.9077 18.928 23.7191 19.8604 23.37C20.6576 23.0617 21.3817 22.5902 21.9861 21.9858C22.5906 21.3813 23.0621 20.6573 23.3704 19.86C23.7199 18.9277 23.9088 17.9429 23.9291 16.9474C23.9861 15.6675 24 15.2587 24 12C24 8.74125 23.9861 8.3325 23.9276 7.05225C23.9077 6.05684 23.7191 5.07201 23.37 4.13962C23.0689 3.33867 22.5967 2.61305 21.9862 2.01338C21.3866 1.40297 20.661 0.930743 19.86 0.629625C18.9278 0.280271 17.9431 0.0914717 16.9478 0.07125C15.6675 0.013875 15.2587 0 12 0Z" fill="#2B534D"/>
</svg>
