<svg width="32" height="32" viewBox="0 0 32 32" fill="none" xmlns="http://www.w3.org/2000/svg">
<path fill-rule="evenodd" clip-rule="evenodd" d="M26.1088 22.9088L32 28.8L28.8 32L22.9088 26.1104C20.4448 28.0816 17.7952 28.8 14.4 28.8C6.4608 28.8 0 22.3408 0 14.4C0 6.4592 6.4608 0 14.4 0C22.3392 0 28.8 6.4592 28.8 14.4C28.8 17.7936 28.0816 20.4432 26.1088 22.9088ZM14.4024 24.0024C9.1087 24.0024 4.80242 19.6961 4.80242 14.4024C4.80242 9.11008 9.1087 4.80242 14.4024 4.80242C19.6961 4.80242 24.0024 9.11008 24.0024 14.4024C24.0024 19.6961 19.6961 24.0024 14.4024 24.0024Z" fill="#D0F068"/>
</svg>
