<svg width="1071" height="207" viewBox="0 0 1071 207" fill="none" xmlns="http://www.w3.org/2000/svg">
<g clip-path="url(#clip0_8257_97365)">
<path d="M246.18 85.4957L175.737 59.234L157.102 29.1567L73.2851 37.0964L36.6731 82.8732L113.039 123.708L112.092 124.299L98.7796 122.253L95.9175 121.98L0 206.761L143.107 116.679L129.515 94.3559L78.0571 75.9516L135.677 65.2299L129.958 54.2923L130.951 54.1174L157.555 78.0085L248.059 86.4728L246.18 85.4957Z" fill="#2B534D"/>
<path d="M161.91 20.9446L179.638 45.9567L210.959 32.5816L211.351 22.1273L180.983 0L163.112 9.69837L161.91 20.9446Z" fill="#2B534D"/>
<path d="M410.568 46.2085H431.627V67.7856H410.568V46.2085ZM410.568 76.1367H431.627V158.033H410.568V76.1367Z" fill="#2B534D"/>
<path d="M445.349 117.079C445.349 92.5095 459.7 73.771 486.524 73.771C513.348 73.771 524.114 92.8283 524.114 111.413C524.114 114.56 523.803 117.712 523.019 121.491H467.492C468.898 135.823 476.853 142.755 486.677 142.755C496.501 142.755 502.739 135.669 504.771 129.051L523.956 134.877C519.744 147.789 508.204 160.388 486.677 160.388C462.501 160.388 445.344 144.323 445.344 117.079H445.349ZM503.839 108.106C503.371 98.6546 497.601 91.4142 486.524 91.4142C477.321 91.4142 470.146 96.6131 467.961 108.106H503.834H503.839Z" fill="#2B534D"/>
<path d="M537.369 46.2085H558.428V158.028H537.369V46.2085Z" fill="#2B534D"/>
<path d="M571.831 117.079C571.831 92.5095 586.183 73.771 613.006 73.771C639.83 73.771 650.596 92.8283 650.596 111.413C650.596 114.56 650.286 117.712 649.501 121.491H593.975C595.38 135.823 603.335 142.755 613.159 142.755C622.983 142.755 629.222 135.669 631.254 129.051L650.438 134.877C646.227 147.789 634.686 160.388 613.159 160.388C588.984 160.388 571.826 144.323 571.826 117.079H571.831ZM630.322 108.106C629.853 98.6546 624.083 91.4142 613.006 91.4142C603.804 91.4142 596.628 96.6131 594.443 108.106H630.317H630.322Z" fill="#2B534D"/>
<path d="M663.543 76.1367H684.602C684.759 77.556 684.912 78.9701 684.912 80.703C684.912 85.2694 683.975 90.1546 682.259 94.2478H684.286C688.498 81.4898 695.358 73.7764 706.745 73.7764C710.799 73.7764 714.7 74.7225 717.353 76.4555L715.326 99.133C712.673 97.2458 709.398 95.8265 704.565 95.8265C691.309 95.8265 684.602 105.592 684.602 125.436V158.038H663.543V76.1418V76.1367Z" fill="#2B534D"/>
<path d="M721.092 132.357L740.276 130.624C741.993 139.603 749.01 143.382 757.745 143.382C766.479 143.382 771.159 139.443 771.159 134.717C771.159 131.411 768.663 128.578 759.929 126.845L750.569 124.798C733.88 121.332 722.182 114.56 722.182 99.6007C722.182 81.9627 738.402 73.771 755.249 73.771C772.096 73.771 787.69 82.4358 790.654 100.701L771.001 102.748C770.064 95.3481 763.983 90.7766 755.249 90.7766C748.384 90.7766 742.461 93.61 742.461 98.4951C742.461 102.748 747.452 104.954 758.84 107.474L763.52 108.574C780.519 112.513 791.438 118.339 791.438 132.985C791.438 149.522 777.713 160.388 757.592 160.388C737.47 160.388 724.366 150.149 721.092 132.357Z" fill="#2B534D"/>
<path d="M808.274 135.036V95.348H795.486V76.1364C811.865 76.1364 815.608 67.158 815.608 54.873H837.13C837.441 65.7387 831.202 73.2979 824.811 74.2441V76.1364H851.171V95.348H829.333V130.151C829.333 137.237 832.918 140.071 837.599 140.071C841.342 140.071 845.243 138.497 847.112 137.078L852.882 155.03C848.828 157.395 842.584 160.383 834.008 160.383C818.725 160.383 808.274 150.777 808.274 135.026V135.036Z" fill="#2B534D"/>
<path d="M857.401 134.718C857.401 121.805 866.761 115.033 881.266 112.04L891.874 109.834C904.193 107.474 910.59 104.635 910.59 99.4416C910.59 94.5616 905.441 90.9362 896.238 90.9362C884.693 90.9362 878.77 96.7625 876.743 105.108L856.469 101.802C859.901 84.0044 873.626 73.7661 895.464 73.7661C914.807 73.7661 931.648 81.9578 931.648 108.888V150.309C931.648 153.616 932.27 155.667 932.585 156.768V158.028H911.063C910.442 156.768 909.816 155.194 909.816 152.675C909.816 149.368 910.911 146.375 912.469 142.282H910.442C904.203 154.094 895.159 160.553 884.24 160.553C870.204 160.553 857.411 149.687 857.411 134.723L857.401 134.718ZM910.748 121.805V114.874H910.59C909.342 120.546 905.13 123.065 893.743 125.112C882.203 127.159 878.77 129.205 878.77 133.458C878.77 138.497 883.603 143.064 891.247 143.064C900.292 143.064 910.743 136.764 910.743 121.8L910.748 121.805Z" fill="#2B534D"/>
<path d="M952.069 135.036V95.348H939.281V76.1364C955.66 76.1364 959.403 67.158 959.403 54.873H980.925C981.236 65.7387 974.997 73.2979 968.606 74.2441V76.1364H994.966V95.348H973.128V130.151C973.128 137.237 976.713 140.071 981.394 140.071C985.137 140.071 989.038 138.497 990.907 137.078L996.677 155.03C992.623 157.395 986.379 160.383 977.803 160.383C962.52 160.383 952.069 150.777 952.069 135.026V135.036Z" fill="#2B534D"/>
<path d="M999.951 132.357L1019.14 130.624C1020.85 139.603 1027.87 143.382 1036.6 143.382C1045.34 143.382 1050.02 139.443 1050.02 134.717C1050.02 131.411 1047.52 128.578 1038.79 126.845L1029.43 124.798C1012.74 121.332 1001.04 114.56 1001.04 99.6007C1001.04 81.9627 1017.26 73.771 1034.11 73.771C1050.96 73.771 1066.55 82.4358 1069.51 100.701L1049.86 102.748C1048.92 95.3481 1042.84 90.7766 1034.11 90.7766C1027.24 90.7766 1021.32 93.61 1021.32 98.4951C1021.32 102.748 1026.31 104.954 1037.7 107.474L1042.38 108.574C1059.38 112.513 1070.3 118.339 1070.3 132.985C1070.3 149.522 1056.57 160.388 1036.45 160.388C1016.33 160.388 1003.23 150.149 999.951 132.357Z" fill="#2B534D"/>
<path d="M340.421 92.5867C340.421 92.5867 338.537 96.6543 337.946 101.303C335.385 115.043 326.584 155.77 326.584 155.77L323.595 157.647H302.439L299.231 155.77L280.082 92.5867V76.8821H297.128C297.128 76.8821 312.309 114.359 312.309 136.471C312.309 138.25 309.834 144.724 309.834 144.724H312.136C312.136 144.724 314.596 138.729 314.611 136.471C317.779 121.358 317.738 122.715 329.375 76.8821H352.191C352.191 76.8821 352.746 76.409 352.99 76.8821C352.99 76.8821 367.326 116.55 367.326 136.471C367.326 138.25 364.851 144.724 364.851 144.724H367.51C367.51 144.724 369.476 139.145 369.985 136.471C373.081 121.178 383.898 76.8821 383.898 76.8821H401.53C401.53 76.8821 401.183 89.2494 401.53 92.5867C394.115 112.868 382.61 155.77 382.61 155.77L379.182 157.647H357.457L354.589 155.77C354.589 155.77 340.279 125.194 340.279 101.303C340.279 99.102 342.754 92.5867 342.754 92.5867H340.416H340.421Z" fill="#2B534D"/>
</g>
<defs>
<clipPath id="clip0_8257_97365">
<rect width="1070.29" height="206.761" fill="white"/>
</clipPath>
</defs>
</svg>
